<svg width="24" height="24" viewBox="0 0 24 24" fill="none" xmlns="http://www.w3.org/2000/svg">
<path d="M12 21C16.9706 21 21 16.9706 21 12C21 7.02944 16.9706 3 12 3C7.02944 3 3 7.02944 3 12C3 16.9706 7.02944 21 12 21Z" fill="#4A90E2" fill-opacity="0.137"/>
<path d="M13.9809 7L14.0828 7.00443C14.4602 7.04636 14.7409 7.36145 14.7498 7.73077L14.7454 7.83267L14.504 9.999L16 9.99985C16.4142 9.99985 16.75 10.3356 16.75 10.7498C16.75 11.1295 16.4678 11.4433 16.1018 11.493L16 11.4998L14.338 11.499L14.171 12.999L16 12.9998C16.4142 12.9998 16.75 13.3356 16.75 13.7498C16.75 14.1295 16.4678 14.4433 16.1018 14.493L16 14.4998L14.004 14.499L13.7454 16.8327C13.6997 17.2444 13.3289 17.541 12.9172 17.4953C12.5398 17.4533 12.2591 17.1382 12.2502 16.7689L12.2546 16.667L12.495 14.499H11.004L10.7454 16.8327C10.6997 17.2444 10.3289 17.541 9.91718 17.4953C9.5398 17.4533 9.25909 17.1382 9.25015 16.7689L9.25459 16.667L9.495 14.499L8 14.4998C7.58579 14.4998 7.25 14.1641 7.25 13.7498C7.25 13.3702 7.53215 13.0564 7.89823 13.0067L8 12.9998L9.662 12.999L9.828 11.499L8 11.4998C7.58579 11.4998 7.25 11.1641 7.25 10.7498C7.25 10.3702 7.53215 10.0564 7.89823 10.0067L8 9.99985L9.995 9.999L10.2546 7.66702C10.2965 7.28965 10.6116 7.00893 10.9809 7L11.0828 7.00443C11.4602 7.04636 11.7409 7.36145 11.7498 7.73077L11.7454 7.83267L11.504 9.999H12.995L13.2546 7.66702C13.2965 7.28965 13.6116 7.00893 13.9809 7ZM12.662 12.999L12.828 11.499H11.338L11.171 12.999H12.662Z" fill="url(#paint0_linear_528_2915)"/>
<defs>
<linearGradient id="paint0_linear_528_2915" x1="8.11165" y1="7" x2="16.8359" y2="16.6426" gradientUnits="userSpaceOnUse">
<stop stop-color="#5EFCE8"/>
<stop offset="1" stop-color="#736EFE"/>
</linearGradient>
</defs>
</svg>
