<svg width="24" height="24" viewBox="0 0 24 24" fill="none" xmlns="http://www.w3.org/2000/svg">
<path d="M11.6502 18.6696H13.4406L8.40093 5H6.71473L1.67506 18.6696H3.46547L4.83906 14.7572H10.2766L11.6502 18.6696ZM7.48205 7.20722H7.63362L9.77453 13.3079H5.34114L7.48205 7.20722Z" fill="black"/>
<path d="M17.6498 18.8496C19.0139 18.8496 20.1317 18.2528 20.7948 17.1634H20.9464V18.6696H22.5V11.6785C22.5 9.55654 21.1075 8.27768 18.616 8.27768C16.4372 8.27768 14.8268 9.35761 14.6089 10.9964H16.2573C16.4846 10.1912 17.3372 9.72706 18.5592 9.72706C20.0844 9.72706 20.8706 10.4186 20.8706 11.6785V12.6069L17.9245 12.7869C15.5468 12.9289 14.2016 13.9805 14.2016 15.8088C14.2016 17.675 15.6699 18.8496 17.6498 18.8496ZM17.9529 17.4192C16.7688 17.4192 15.8878 16.8129 15.8878 15.7709C15.8878 14.7478 16.5699 14.2078 18.1234 14.1036L20.8706 13.9236V14.8615C20.8706 16.3203 19.6297 17.4192 17.9529 17.4192Z" fill="black"/>
</svg>
