<svg width="24" height="24" viewBox="0 0 24 24" fill="none" xmlns="http://www.w3.org/2000/svg">
<path fill-rule="evenodd" clip-rule="evenodd" d="M11 19.9996C11 20.5519 11.4477 20.9996 12 20.9996C12.5523 20.9996 13 20.5519 13 19.9996V12.9996L20 12.9996C20.5523 12.9996 21 12.5519 21 11.9996C21 11.4473 20.5523 10.9996 20 10.9996L13 10.9996V3.99963C13 3.44735 12.5523 2.99963 12 2.99963C11.4477 2.99963 11 3.44735 11 3.99963L11 10.9996L4 10.9996C3.44772 10.9996 3 11.4473 3 11.9996C3 12.5519 3.44772 12.9996 4 12.9996L11 12.9996L11 19.9996Z" fill="black"/>
</svg>
