<svg width="26" height="26" viewBox="0 0 26 26" fill="none" xmlns="http://www.w3.org/2000/svg">
<circle cx="13" cy="13" r="12.5" stroke="black" stroke-opacity="0.1"/>
<path fill-rule="evenodd" clip-rule="evenodd" d="M12.4167 17.6667C12.4167 17.9888 12.6778 18.25 13 18.25C13.3222 18.25 13.5833 17.9888 13.5833 17.6667V13.5833L17.6667 13.5833C17.9888 13.5833 18.25 13.3222 18.25 13C18.25 12.6778 17.9888 12.4167 17.6667 12.4167H13.5833V8.33333C13.5833 8.01117 13.3222 7.75 13 7.75C12.6778 7.75 12.4167 8.01117 12.4167 8.33333V12.4167H8.33333C8.01117 12.4167 7.75 12.6778 7.75 13C7.75 13.3222 8.01117 13.5833 8.33333 13.5833L12.4167 13.5833V17.6667Z" fill="black" fill-opacity="0.25"/>
</svg>
