<svg width="24" height="24" viewBox="0 0 24 24" fill="none" xmlns="http://www.w3.org/2000/svg">
<path fill-rule="evenodd" clip-rule="evenodd" d="M11.75 2.5C6.64137 2.5 2.5 6.64137 2.5 11.75C2.5 16.8586 6.64137 21 11.75 21C16.8586 21 21 16.8586 21 11.75C21 6.64137 16.8586 2.5 11.75 2.5ZM1 11.75C1 5.81294 5.81294 1 11.75 1C17.6871 1 22.5 5.81294 22.5 11.75C22.5 17.6871 17.6871 22.5 11.75 22.5C5.81294 22.5 1 17.6871 1 11.75ZM12 6.25C12.4142 6.25 12.75 6.58579 12.75 7V11.25H17C17.4142 11.25 17.75 11.5858 17.75 12C17.75 12.4142 17.4142 12.75 17 12.75H12.75V17C12.75 17.4142 12.4142 17.75 12 17.75C11.5858 17.75 11.25 17.4142 11.25 17V12.75H7C6.58579 12.75 6.25 12.4142 6.25 12C6.25 11.5858 6.58579 11.25 7 11.25H11.25V7C11.25 6.58579 11.5858 6.25 12 6.25Z" fill="black"/>
</svg>
