<svg width="24" height="24" viewBox="0 0 24 24" fill="none" xmlns="http://www.w3.org/2000/svg">
<path fill-rule="evenodd" clip-rule="evenodd" d="M7.44721 4.10521C7.786 3.42764 8.47852 2.99963 9.23607 2.99963H14.7639C15.5215 2.99963 16.214 3.42764 16.5528 4.10521L17.5 5.99963H20C21.6569 5.99963 23 7.34278 23 8.99963V17.9996C23 19.6565 21.6569 20.9996 20 20.9996H4C2.34315 20.9996 1 19.6565 1 17.9996V8.99963C1 7.34278 2.34315 5.99963 4 5.99963H6.5L7.44721 4.10521ZM11.7366 16.779C12.6034 16.8649 13.4713 16.6266 14.1728 16.1101C14.2345 16.0649 14.3047 16.0328 14.3792 16.0157C14.4537 15.9986 14.531 15.9969 14.6062 16.0106C14.6814 16.0244 14.753 16.0534 14.8166 16.0958C14.8802 16.1382 14.9344 16.1932 14.9761 16.2573C15.0636 16.3882 15.0977 16.5476 15.0714 16.7028C15.0451 16.8581 14.9604 16.9973 14.8346 17.092C14.017 17.6888 13.0644 17.9996 12.0875 17.9996C11.9288 17.9996 11.7687 17.9889 11.6087 17.9725L11.5122 17.9589C11.488 17.9558 11.4638 17.9529 11.4396 17.95C11.3749 17.9422 11.3099 17.9344 11.2449 17.9225C11.2293 17.9199 11.2142 17.9159 11.199 17.9118C11.1884 17.909 11.1778 17.9062 11.167 17.9039C11.1219 17.8947 11.0774 17.8838 11.033 17.8729C11.0148 17.8684 10.9966 17.8639 10.9784 17.8596C10.9707 17.8576 10.963 17.8557 10.9554 17.8538C10.8688 17.8322 10.7829 17.8108 10.6982 17.7845C10.6639 17.7738 10.63 17.7616 10.5961 17.7495C10.5806 17.744 10.5651 17.7385 10.5496 17.7331C10.4445 17.6966 10.3402 17.6573 10.2387 17.6144C10.2175 17.6056 10.1972 17.5956 10.1774 17.5859C10.1685 17.5815 10.1596 17.5772 10.1508 17.573C9.60241 17.3229 9.10648 16.9711 8.68935 16.536L8.66291 16.5075C8.56786 16.4053 8.47424 16.3016 8.38706 16.1909C8.36419 16.1616 8.34276 16.1316 8.32132 16.1016L8.32131 16.1015C8.3115 16.0889 8.30166 16.0764 8.29182 16.0638C8.24136 15.9992 8.19072 15.9345 8.14408 15.8657C8.14028 15.8596 8.13729 15.8534 8.13436 15.8472C8.13177 15.8418 8.12923 15.8364 8.12621 15.8314C7.56953 14.9914 7.27365 14.0056 7.27579 12.9978H6.42893C6.40749 12.9978 6.38605 12.9857 6.37462 12.9643C6.36951 12.9542 6.36715 12.9429 6.36777 12.9316C6.3684 12.9203 6.372 12.9094 6.37819 12.8999L7.80033 10.6781C7.80583 10.6694 7.81343 10.6623 7.82242 10.6573C7.83141 10.6523 7.8415 10.6496 7.85179 10.6495C7.86207 10.6496 7.87217 10.6523 7.88116 10.6573C7.89015 10.6623 7.89774 10.6694 7.90324 10.6781L9.32538 12.8992C9.33145 12.9087 9.3349 12.9196 9.33539 12.9308C9.33587 12.942 9.33337 12.9532 9.32815 12.9632C9.32292 12.9731 9.31514 12.9815 9.30562 12.9875C9.2961 12.9934 9.28516 12.9968 9.27393 12.9971H8.42779C8.42602 13.8534 8.70771 14.6861 9.2289 15.3655L9.27178 15.4226C9.56414 15.7904 9.92381 16.0991 10.3316 16.3324L10.3437 16.3395C10.4346 16.39 10.5276 16.4365 10.6225 16.4789C10.6276 16.4813 10.6327 16.4838 10.6378 16.4864C10.6506 16.4927 10.6635 16.499 10.6768 16.5046C10.7577 16.5392 10.84 16.5706 10.9233 16.5989C10.9388 16.604 10.9539 16.6094 10.969 16.6149C10.9882 16.6218 11.0074 16.6287 11.0269 16.6347C11.0997 16.6566 11.1731 16.6764 11.2471 16.694C11.2612 16.6973 11.2753 16.7007 11.2894 16.7042C11.3211 16.7119 11.3531 16.7197 11.3857 16.7261C11.4618 16.7408 11.5383 16.7532 11.6151 16.7633C11.6315 16.7653 11.6477 16.7676 11.6638 16.7699C11.6883 16.7734 11.7124 16.7769 11.7366 16.779ZM16.0366 10.1714C16.569 10.9754 16.8827 11.9488 16.8827 12.9978L17.7296 12.9971C17.7408 12.9972 17.7519 13.0004 17.7614 13.0063C17.771 13.0122 17.7788 13.0207 17.7839 13.0307C17.789 13.0408 17.7914 13.0521 17.7907 13.0634C17.7901 13.0747 17.7865 13.0856 17.7803 13.095L16.3582 15.3169C16.3475 15.334 16.3289 15.3454 16.3074 15.3454C16.2853 15.3454 16.2667 15.334 16.256 15.3169L14.8324 13.095C14.8262 13.0854 14.8227 13.0743 14.8222 13.0629C14.8217 13.0515 14.8242 13.0401 14.8296 13.03C14.841 13.0093 14.8624 12.9971 14.8839 12.9971H15.73C15.7326 12.1244 15.4405 11.2763 14.901 10.5902L14.8946 10.5809C14.5285 10.1178 14.0564 9.74942 13.5182 9.50682L13.491 9.49467C13.401 9.45608 13.3102 9.42177 13.2173 9.39033L13.1409 9.36317C13.0594 9.33745 12.9765 9.31672 12.8929 9.29743C12.8814 9.29468 12.8698 9.29171 12.858 9.28871C12.833 9.28235 12.8074 9.27584 12.7821 9.27098C12.6971 9.25383 12.6113 9.24097 12.5241 9.22953L12.4276 9.21667C11.5588 9.12949 10.6886 9.36813 9.98571 9.88629C9.72558 10.0764 9.3654 10.0106 9.18245 9.73907C9.09459 9.60813 9.06036 9.44844 9.08682 9.29298C9.11328 9.13752 9.19842 8.99816 9.32467 8.90366C10.1194 8.31866 11.08 8.00247 12.0668 8.00106L12.0789 7.99963C12.0903 7.99963 12.1018 8.00053 12.1132 8.00142C12.1246 8.00231 12.1361 8.00321 12.1475 8.00321C12.2747 8.00469 12.4017 8.01113 12.5284 8.0225C12.5649 8.02688 12.6003 8.03191 12.6357 8.03693C12.6523 8.03929 12.6689 8.04165 12.6856 8.04394C12.711 8.04726 12.7363 8.0501 12.7616 8.05294C12.8127 8.05868 12.8637 8.0644 12.9143 8.07396C12.9292 8.07663 12.9435 8.08032 12.9579 8.08405C12.9705 8.08731 12.9832 8.09059 12.9965 8.09325C13.0371 8.10137 13.0769 8.11128 13.1168 8.12121C13.1332 8.12527 13.1495 8.12933 13.1659 8.13327C13.2673 8.1567 13.3679 8.18363 13.4675 8.21403C13.4983 8.22395 13.5283 8.23463 13.5581 8.24524C13.5691 8.24915 13.5801 8.25305 13.5911 8.25691C13.7051 8.29607 13.8179 8.33897 13.9291 8.38554L13.9856 8.4127C14.6878 8.72857 15.3032 9.20962 15.7793 9.81483C15.7859 9.82241 15.7917 9.8307 15.7974 9.8387C15.7997 9.84202 15.802 9.84528 15.8043 9.84842L15.8044 9.84844C15.8765 9.94062 15.9487 10.0328 16.0152 10.1307C16.0199 10.138 16.0238 10.146 16.0279 10.1544C16.0306 10.16 16.0334 10.1657 16.0366 10.1714Z" fill="black"/>
</svg>
