<svg width="24" height="24" viewBox="0 0 24 24" fill="none" xmlns="http://www.w3.org/2000/svg">
<path fill-rule="evenodd" clip-rule="evenodd" d="M18.9132 6.93686C17.237 4.49847 14.4723 3 11.4478 3C6.4408 3 2.38205 7.05876 2.38205 12.0658C2.38205 12.4152 2.40591 12.7671 2.45286 13.1342C1.24392 14.4006 0.721432 15.6564 1.14563 16.7807C1.62584 18.0542 3.12652 18.6531 5.26231 18.6917C6.92639 20.2467 9.11733 21.1314 11.4481 21.1314C16.1308 21.1314 20.0081 17.5668 20.46 12.9601C22.0357 11.5228 22.7658 10.0846 22.2867 8.81233C21.8634 7.69079 20.6484 7.09292 18.9132 6.93686ZM18.1882 14.663L18.4479 14.4948L18.4175 14.5836L18.3369 14.797C17.2487 17.5498 14.5665 19.4831 11.4481 19.4831L11.1873 19.4785L10.8851 19.462C9.78166 19.379 8.72878 19.0531 7.78409 18.5159L7.83257 18.5095L8.26249 18.4422C9.85199 18.1763 11.5818 17.7041 13.3188 17.049C15.1204 16.3704 16.7864 15.5489 18.1882 14.663ZM16.027 7.45382C14.8043 6.15736 13.1032 5.40747 11.2851 5.40747C10.855 5.40747 10.5063 5.75611 10.5063 6.18618C10.5063 6.61624 10.855 6.96488 11.2851 6.96488C12.6698 6.96488 13.9625 7.53476 14.894 8.52238C15.189 8.83526 15.6819 8.84968 15.9948 8.55461C16.3076 8.25953 16.3221 7.76669 16.027 7.45382Z" fill="black"/>
</svg>
