<svg width="24" height="24" viewBox="0 0 24 24" fill="none" xmlns="http://www.w3.org/2000/svg">
<path d="M11.0568 6.45205C12.8397 6.45205 14.4479 7.20299 15.581 8.40449M5.70264 18.2217C7.23151 19.7632 9.34932 20.7183 11.6924 20.7183C16.1795 20.7183 19.8388 17.2126 20.1038 12.7913M5.70264 18.2217C7.77742 18.2031 10.4842 17.6589 13.3099 16.5932C16.139 15.5276 18.5327 14.1481 20.1038 12.7913M5.70264 18.2217C3.7097 18.2402 2.29819 17.7745 1.93453 16.8101C1.60884 15.9469 2.17467 14.83 3.3787 13.6715C3.3036 13.2184 3.25467 12.756 3.25467 12.281C3.25467 7.62098 7.03213 3.84351 11.6922 3.84351C14.7221 3.84351 17.3706 5.44579 18.859 7.84372C20.5195 7.92219 21.6742 8.38694 21.9991 9.24756C22.3619 10.2111 21.6099 11.4911 20.1038 12.7913" stroke="black" stroke-width="2" stroke-linecap="round" stroke-linejoin="round"/>
</svg>
