<svg width="24" height="24" viewBox="0 0 24 24" fill="none" xmlns="http://www.w3.org/2000/svg">
<path fill-rule="evenodd" clip-rule="evenodd" d="M16.8784 17.5782C17.269 17.1876 17.269 16.5545 16.8784 16.164L12.9999 12.2855L16.5785 8.70686C16.9691 8.31634 16.9691 7.68317 16.5785 7.29265C16.188 6.90213 15.5548 6.90213 15.1643 7.29265L11.5857 10.8712L8.007 7.29253C7.61648 6.902 6.98331 6.902 6.59279 7.29253C6.20227 7.68305 6.20227 8.31622 6.59279 8.70674L10.1715 12.2855L6.29289 16.1641C5.90237 16.5546 5.90237 17.1878 6.29289 17.5783C6.68342 17.9688 7.31658 17.9688 7.70711 17.5783L11.5857 13.6997L15.4642 17.5782C15.8547 17.9687 16.4879 17.9687 16.8784 17.5782Z" fill="black"/>
</svg>
