<svg width="24" height="24" viewBox="0 0 24 24" fill="none" xmlns="http://www.w3.org/2000/svg">
<path d="M12.0916 3.85703C12.2554 3.51332 12.7446 3.51332 12.9084 3.85703L15.2713 8.81576C15.3372 8.95406 15.4686 9.0496 15.6205 9.06965L21.0612 9.78784C21.4382 9.83761 21.5893 10.3022 21.3136 10.5642L17.3328 14.3484C17.2219 14.4538 17.1718 14.6081 17.1996 14.7586L18.1989 20.1626C18.2681 20.5368 17.8724 20.8241 17.538 20.6423L12.716 18.0216C12.5813 17.9484 12.4187 17.9484 12.284 18.0216L7.462 20.6423C7.12762 20.8241 6.73193 20.5368 6.80113 20.1626L7.80041 14.7586C7.82822 14.6081 7.77813 14.4538 7.66725 14.3484L3.68635 10.5642C3.4107 10.3022 3.56178 9.83761 3.93883 9.78784L9.37953 9.06965C9.53141 9.0496 9.66282 8.95406 9.72872 8.81576L12.0916 3.85703Z" stroke="black" stroke-width="1.5" stroke-linecap="round" stroke-linejoin="round"/>
<path d="M11.5 12C11.5 11.4477 11.9477 11 12.5 11C13.0523 11 13.5 11.4477 13.5 12V14C13.5 14.5523 13.0523 15 12.5 15C11.9477 15 11.5 14.5523 11.5 14V12Z" fill="#FA6650" fill-opacity="0.2"/>
</svg>
