<svg width="24" height="24" viewBox="0 0 24 24" fill="none" xmlns="http://www.w3.org/2000/svg">
<path d="M12.0104 1.94568C12.1915 1.56612 12.7318 1.56612 12.9129 1.94568L15.5129 7.39448C15.5858 7.54723 15.731 7.65274 15.8988 7.67486L21.8844 8.46387C22.3013 8.51884 22.4683 9.03267 22.1633 9.32222L17.7846 13.4788C17.6619 13.5953 17.6064 13.766 17.6372 13.9324L18.7365 19.8689C18.813 20.2824 18.376 20.6 18.0063 20.3994L12.7001 17.5194C12.5514 17.4387 12.3719 17.4387 12.2231 17.5194L6.91692 20.3994C6.54729 20.6 6.11019 20.2824 6.18677 19.8689L7.28602 13.9324C7.31683 13.766 7.26136 13.5953 7.13861 13.4788L2.75995 9.32222C2.45494 9.03267 2.62189 8.51884 3.03884 8.46387L9.02441 7.67486C9.19222 7.65274 9.33744 7.54724 9.41033 7.39448L12.0104 1.94568Z" stroke="black" stroke-width="1.5" stroke-linecap="round" stroke-linejoin="round"/>
</svg>
