<svg width="24" height="24" viewBox="0 0 24 24" fill="none" xmlns="http://www.w3.org/2000/svg">
<path fill-rule="evenodd" clip-rule="evenodd" d="M2.75 19.1572C2.6 19.698 3.06 20.0976 3.57 19.9374L5.59 19.3375C6.14 19.1572 6.57 19.3866 7.08 19.698C8.54 20.5583 10.36 21 12 21C16.96 21 22 17.1642 22 10.985C22 5.65598 17.7 1 12.02 1C6.21 1 2 5.74612 2 11.015C2 12.6975 2.49 14.4291 3.35 16.0115C3.51 16.2729 3.53 16.6024 3.42 16.9139L2.75 19.1572ZM7.8309 18.399C7.3465 18.1026 6.3802 17.5115 5.14634 17.9045L4.64516 18.0533L4.84881 17.3715C5.06546 16.7244 5.05262 15.9507 4.65435 15.2702C3.90413 13.881 3.5 12.403 3.5 11.015C3.5 6.52226 7.08976 2.5 12.02 2.5C16.8365 2.5 20.5 6.44889 20.5 10.985C20.5 16.2218 16.2503 19.5 12 19.5C10.6038 19.5 9.05632 19.1186 7.85126 18.4114L7.8309 18.399ZM9.53033 14.298C9.23744 14.0051 8.76256 14.0051 8.46967 14.298C8.17678 14.5909 8.17678 15.0658 8.46967 15.3587C10.3247 17.2137 13.3322 17.2137 15.1872 15.3587C15.4801 15.0658 15.4801 14.5909 15.1872 14.298C14.8943 14.0051 14.4194 14.0051 14.1265 14.298C12.8573 15.5672 10.7995 15.5672 9.53033 14.298Z" fill="black"/>
</svg>
