<svg width="45" height="44" viewBox="0 0 45 44" fill="none" xmlns="http://www.w3.org/2000/svg">
<circle cx="22.5" cy="22" r="22" fill="#FD8415"/>
<path d="M31.3807 28.7256H25.0537C24.4364 28.7256 23.9344 29.2357 23.9344 29.8627C23.9344 30.491 24.4364 30.9998 25.0537 30.9998H31.3807C31.9979 30.9998 32.5 30.491 32.5 29.8627C32.5 29.2357 31.9979 28.7256 31.3807 28.7256Z" fill="white" fill-opacity="0.5"/>
<path d="M20.6211 15.3378L26.6165 20.1823C26.761 20.2981 26.7858 20.5108 26.6729 20.6589L19.5652 29.9203C19.1184 30.4924 18.46 30.8161 17.7545 30.828L13.8744 30.8758C13.6674 30.8783 13.4864 30.7349 13.4394 30.5295L12.5575 26.6954C12.4047 25.9907 12.5575 25.2621 13.0043 24.7007L20.1472 15.3951C20.2625 15.2458 20.4753 15.2195 20.6211 15.3378Z" fill="white"/>
<path d="M29.3008 17.2949L28.145 18.7377C28.0286 18.8846 27.8193 18.9085 27.6747 18.7915C26.2696 17.6544 22.6716 14.7365 21.6734 13.9279C21.5276 13.8084 21.5076 13.5958 21.6252 13.4477L22.7398 12.0634C23.7511 10.7615 25.5147 10.642 26.9375 11.7767L28.5718 13.0786C29.242 13.6042 29.6888 14.2969 29.8417 15.0255C30.018 15.827 29.8299 16.6141 29.3008 17.2949Z" fill="white"/>
</svg>
