<svg width="24" height="24" viewBox="0 0 24 24" fill="none" xmlns="http://www.w3.org/2000/svg">
<path fill-rule="evenodd" clip-rule="evenodd" d="M9.31828 3C8.52544 3 7.83165 3.53302 7.62737 4.29909L7.31005 5.48901H3.75C3.33579 5.48901 3 5.8248 3 6.23901C3 6.65323 3.33579 6.98901 3.75 6.98901H19.75C20.1642 6.98901 20.5 6.65323 20.5 6.23901C20.5 5.8248 20.1642 5.48901 19.75 5.48901H16.1899L15.8726 4.29909C15.6683 3.53302 14.9746 3 14.1817 3H9.31828ZM14.6375 5.48901L14.4233 4.68558C14.3941 4.57615 14.295 4.5 14.1817 4.5H9.31828C9.20502 4.5 9.1059 4.57615 9.07672 4.68558L8.86247 5.48901H14.6375ZM4.6821 9.00308C5.09461 8.96558 5.45942 9.26959 5.49692 9.6821L6.24888 17.9537C6.35424 19.1126 7.32594 20 8.48964 20H15.0104C16.1741 20 17.1458 19.1126 17.2511 17.9537L18.0031 9.6821C18.0406 9.26959 18.4054 8.96558 18.8179 9.00308C19.2304 9.04058 19.5344 9.40539 19.4969 9.8179L18.745 18.0895C18.5694 20.0211 16.9499 21.5 15.0104 21.5H8.48964C6.55013 21.5 4.93064 20.0211 4.75504 18.0895L4.00308 9.8179C3.96558 9.40539 4.26959 9.04058 4.6821 9.00308ZM12.75 12C12.75 11.5858 12.4142 11.25 12 11.25C11.5858 11.25 11.25 11.5858 11.25 12V16.5C11.25 16.9142 11.5858 17.25 12 17.25C12.4142 17.25 12.75 16.9142 12.75 16.5V12Z" fill="black"/>
</svg>
