<svg width="24" height="24" viewBox="0 0 24 24" fill="none" xmlns="http://www.w3.org/2000/svg">
<path d="M9.51622 19.3496C8.56622 17.3496 9.06622 16.1996 9.81622 15.1496C10.6162 13.9496 10.8162 12.7996 10.8162 12.7996C10.8162 12.7996 11.4662 13.5996 11.2162 14.8996C12.3162 13.6496 12.5162 11.6496 12.3662 10.8996C14.8662 12.6496 15.9662 16.4996 14.5162 19.2996C22.2162 14.8996 16.4162 8.34963 15.4162 7.64963C15.7662 8.39963 15.8162 9.64963 15.1162 10.2496C13.9662 5.84963 11.1162 4.99963 11.1162 4.99963C11.4662 7.24963 9.91622 9.69963 8.41622 11.5496C8.36622 10.6496 8.31622 10.0496 7.81622 9.14963C7.71622 10.7996 6.46622 12.0996 6.11622 13.7496C5.66622 15.9996 6.46622 17.5996 9.51622 19.3496Z" fill="black"/>
</svg>
