<svg width="24" height="24" viewBox="0 0 24 24" fill="none" xmlns="http://www.w3.org/2000/svg">
<path fill-rule="evenodd" clip-rule="evenodd" d="M4 18C4 15.6528 5.9028 13.75 8.25001 13.75L15.25 13.75C17.5972 13.75 19.5 15.6528 19.5 18V20.25C19.5 20.6642 19.1642 21 18.75 21C18.3358 21 18 20.6642 18 20.25V18C18 16.4812 16.7688 15.25 15.25 15.25L8.25001 15.25C6.73122 15.25 5.5 16.4812 5.5 18V20.25C5.5 20.6642 5.16421 21 4.75 21C4.33579 21 4 20.6642 4 20.25V18Z" fill="black"/>
<circle cx="11.75" cy="7.5" r="3.75" fill="#FA6650" fill-opacity="0.2" stroke="black" stroke-width="1.5"/>
</svg>
