<svg width="24" height="24" viewBox="0 0 24 24" fill="none" xmlns="http://www.w3.org/2000/svg">
<path fill-rule="evenodd" clip-rule="evenodd" d="M12.3903 3.20885C13.0479 2.70299 14 3.1718 14 4.00147V19.9397C14 20.7694 13.0479 21.2382 12.3903 20.7324L7.76959 17.178C7.59478 17.0435 7.38042 16.9706 7.15988 16.9706H4C2.89543 16.9706 2 16.0752 2 14.9706V8.97061C2 7.86604 2.89543 6.97061 4 6.97061H7.15988C7.38042 6.97061 7.59478 6.8977 7.76959 6.76324L12.3903 3.20885ZM15.963 6.22901C16.3814 5.93377 16.9529 6.04005 17.2413 6.4652C18.2542 7.9575 18.8131 9.91253 18.8131 11.9706C18.8131 14.0287 18.2542 15.9837 17.2413 17.476C17.0693 17.7283 16.7883 17.8797 16.4873 17.8797C16.3007 17.8797 16.1193 17.8217 15.9641 17.7122C15.5488 17.4148 15.4461 16.8286 15.7344 16.4046C16.5366 15.2225 16.9781 13.6476 16.9781 11.9706C16.9781 10.2926 16.5366 8.71868 15.7344 7.53665C15.4461 7.11258 15.5488 6.52639 15.963 6.22901ZM19.5671 3.42788C19.2808 3.0038 18.7072 2.89537 18.2899 3.19168C17.8757 3.48907 17.7729 4.07526 18.0602 4.49933C19.4171 6.49837 20.1648 9.15231 20.1648 11.9705C20.1648 14.7898 19.4171 17.4437 18.0602 19.4428C17.7729 19.8679 17.8757 20.453 18.2909 20.7504C18.4461 20.8599 18.6265 20.9179 18.8131 20.9179C19.1141 20.9179 19.3961 20.7665 19.5671 20.5142C21.1358 18.2049 21.9998 15.1709 21.9998 11.9705C21.9998 8.77226 21.1358 5.73719 19.5671 3.42788Z" fill="black"/>
</svg>
