<svg width="44" height="44" viewBox="0 0 44 44" fill="none" xmlns="http://www.w3.org/2000/svg">
<circle cx="22" cy="22" r="22" fill="#5470F6"/>
<path opacity="0.5" d="M26.3239 11.6005C26.0084 11.2712 25.4546 11.4978 25.4546 11.9541V14.7462C25.4546 15.9173 26.4192 16.8808 27.5902 16.8808C28.3282 16.8893 29.3532 16.8914 30.2246 16.8893C30.6693 16.8882 30.8959 16.3556 30.5867 16.0338C29.4696 14.8722 27.4695 12.7906 26.3239 11.6005Z" fill="white"/>
<path fill-rule="evenodd" clip-rule="evenodd" d="M28.4923 18.4297C28.7611 18.432 29.0001 18.434 29.2094 18.434C29.4441 18.434 29.788 18.4313 30.1292 18.4285C30.262 18.4275 30.3944 18.4264 30.5198 18.4255C30.7861 18.4245 31 18.6415 31 18.9105V27.4139C31 30.0451 28.8886 32.1765 26.2835 32.1765H17.945C15.2141 32.1765 13 29.9413 13 27.1831V15.7742C13 13.1452 15.1135 11 17.7259 11H23.3262C23.5914 11 23.8062 11.2181 23.8062 11.486V14.8912C23.8062 16.832 25.3872 18.4234 27.3099 18.4234C27.7531 18.4234 28.1472 18.4268 28.4923 18.4297ZM19.2727 24.3087H24.5065C24.9416 24.3087 25.2953 23.9561 25.2953 23.5209C25.2953 23.0858 24.9416 22.7321 24.5065 22.7321H19.2727C18.8375 22.7321 18.4839 23.0858 18.4839 23.5209C18.4839 23.9561 18.8375 24.3087 19.2727 24.3087Z" fill="white"/>
</svg>
