<svg width="24" height="24" viewBox="0 0 24 24" fill="none" xmlns="http://www.w3.org/2000/svg">
<path fill-rule="evenodd" clip-rule="evenodd" d="M19.4515 10.2224V19.1375C19.4515 19.6898 19.0038 20.1375 18.4515 20.1375H5.54858C4.9963 20.1375 4.54858 19.6898 4.54858 19.1375V10.2234C4.54858 9.59535 4.84358 9.00379 5.34521 8.62591L11.4014 4.06379C11.7577 3.79534 12.2488 3.79544 12.605 4.06402L18.6555 8.62542C19.1567 9.00333 19.4515 9.59467 19.4515 10.2224ZM2.54858 10.2234C2.54858 8.96732 3.13858 7.78421 4.14183 7.02845L10.198 2.46633C11.267 1.661 12.7403 1.66127 13.809 2.46701L19.8594 7.02842C20.862 7.78423 21.4515 8.96691 21.4515 10.2224V19.1375C21.4515 20.7943 20.1083 22.1375 18.4515 22.1375H5.54858C3.89173 22.1375 2.54858 20.7943 2.54858 19.1375V10.2234ZM10.6231 14.4477C10.1822 14.1151 9.55513 14.2029 9.22254 14.6438C8.88996 15.0847 8.97778 15.7118 9.41869 16.0443C10.1671 16.6089 11.1048 16.8645 12 16.8645C12.8953 16.8645 13.833 16.6089 14.5814 16.0443C15.0223 15.7118 15.1101 15.0847 14.7775 14.6438C14.4449 14.2029 13.8179 14.1151 13.377 14.4477C13.0321 14.7078 12.5372 14.8645 12 14.8645C11.4628 14.8645 10.968 14.7078 10.6231 14.4477Z" fill="black"/>
</svg>
