<svg width="24" height="24" viewBox="0 0 24 24" fill="none" xmlns="http://www.w3.org/2000/svg">
<path fill-rule="evenodd" clip-rule="evenodd" d="M3.49033 5.37218C3.80665 4.84842 5.5495 2.9434 6.79322 3.00091C7.165 3.03172 7.49364 3.25663 7.76067 3.51748C8.37379 4.1162 10.129 6.38065 10.2286 6.85717C10.471 8.02585 9.07833 8.69954 9.50454 9.87747C10.5911 12.5362 12.4634 14.4084 15.1233 15.4939C16.3003 15.9201 16.974 14.5275 18.1428 14.7709C18.6183 14.8705 20.8839 16.6256 21.4826 17.2387C21.7425 17.5047 21.9684 17.8343 21.9992 18.2061C22.0454 19.5155 20.0222 21.2829 19.6278 21.5088C18.6974 22.1743 17.4834 22.163 16.0035 21.4749C11.8739 19.7568 5.27426 13.2818 3.52422 8.99633C2.85461 7.52469 2.80839 6.30261 3.49033 5.37218Z" stroke="black" stroke-width="2" stroke-linecap="round" stroke-linejoin="round"/>
</svg>
