<svg width="24" height="24" viewBox="0 0 24 24" fill="none" xmlns="http://www.w3.org/2000/svg">
<path fill-rule="evenodd" clip-rule="evenodd" d="M22.9048 10.6064C23.0455 11.1763 23.1555 13.6508 22.2728 14.4555C21.9997 14.6868 21.6242 14.7572 21.2661 14.7614C20.4441 14.7711 17.7173 14.4257 17.3265 14.17C16.3693 13.5416 16.857 12.1399 15.7688 11.63C13.2282 10.5635 10.6881 10.5636 8.1474 11.6316C7.05987 12.1409 7.54754 13.5425 6.58957 14.1703C6.19945 14.4253 3.472 14.7716 2.64997 14.7618C2.29322 14.7577 1.64329 14.456 1.64329 14.456C0.72372 13.5991 0.897244 11.0278 1.01155 10.607C1.19124 9.52439 2.02243 8.70854 3.49309 8.17142C7.45989 6.53557 16.3291 6.45102 20.4233 8.17096C21.8759 8.71502 22.7362 9.51267 22.9048 10.6064Z" fill="black"/>
</svg>
