<svg width="24" height="24" viewBox="0 0 24 24" fill="none" xmlns="http://www.w3.org/2000/svg">
<path fill-rule="evenodd" clip-rule="evenodd" d="M7.94999 6.99963H9.02221C9.3096 6.99963 9.56685 6.82136 9.66776 6.55227L10.4251 4.53271C10.7709 3.61056 11.6525 2.99963 12.6373 2.99963C13.9422 2.99963 15 4.05744 15 5.3623V6.72377C15 6.87613 15.1235 6.99963 15.2759 6.99963H19.7045C20.8921 6.99963 21.7827 8.08605 21.5498 9.25051L19.8216 17.8919C19.6346 18.8267 18.8138 19.4996 17.8604 19.4996H7.79198C7.4062 20.3826 6.52516 20.9996 5.5 20.9996C4.11929 20.9996 3 19.8803 3 18.4996V7.49963C3 6.11892 4.11929 4.99963 5.5 4.99963C6.70948 4.99963 7.71836 5.85851 7.94999 6.99963Z" fill="black"/>
</svg>
