<svg width="24" height="24" viewBox="0 0 24 24" fill="none" xmlns="http://www.w3.org/2000/svg">
<path fill-rule="evenodd" clip-rule="evenodd" d="M8 8.5H9.02221C9.93487 8.5 10.7518 7.93387 11.0723 7.07932L11.8296 5.05977C11.9559 4.72306 12.2777 4.5 12.6373 4.5C13.1138 4.5 13.5 4.88623 13.5 5.36267V6.72414C13.5 7.70492 14.2951 8.5 15.2759 8.5H19.3481C19.7734 8.5 20.0925 8.88914 20.009 9.30624L18.5115 16.7942C18.3712 17.4953 17.7556 18 17.0406 18H8V8.5ZM7.94999 7H8H9.02221C9.3096 7 9.56685 6.82173 9.66776 6.55263L10.4251 4.53308C10.7709 3.61092 11.6525 3 12.6373 3C13.9422 3 15 4.0578 15 5.36267V6.72414C15 6.87649 15.1235 7 15.2759 7H19.3481C20.72 7 21.749 8.25513 21.4799 9.60041L19.9823 17.0884C19.7019 18.4906 18.4706 19.5 17.0406 19.5H8H7.79198C7.4062 20.383 6.52516 21 5.5 21C4.11929 21 3 19.8807 3 18.5V7.5C3 6.11929 4.11929 5 5.5 5C6.70948 5 7.71836 5.85888 7.94999 7ZM6.5 7.5C6.5 6.94772 6.05228 6.5 5.5 6.5C4.94772 6.5 4.5 6.94772 4.5 7.5V18.5C4.5 19.0523 4.94772 19.5 5.5 19.5C6.05228 19.5 6.5 19.0523 6.5 18.5V18V8.5V7.5Z" fill="black"/>
</svg>
