<svg width="24" height="24" viewBox="0 0 24 24" fill="none" xmlns="http://www.w3.org/2000/svg">
<path fill-rule="evenodd" clip-rule="evenodd" d="M20.7653 9.7536C22.3102 8.20862 22.3102 5.70372 20.7653 4.15874C19.2203 2.61375 16.7154 2.61376 15.1704 4.15873L12.5794 6.74971C12.2865 7.0426 12.2865 7.51748 12.5794 7.81037C12.8723 8.10326 13.3472 8.10326 13.6401 7.81037L16.2311 5.2194C17.1903 4.2602 18.7454 4.2602 19.7046 5.2194C20.6638 6.17859 20.6638 7.73375 19.7046 8.69294L14.5227 13.8749C13.5635 14.8341 12.0083 14.8341 11.0491 13.8749C10.7562 13.582 10.2813 13.582 9.98845 13.8749C9.69555 14.1678 9.69555 14.6427 9.98845 14.9356C11.5334 16.4805 14.0383 16.4805 15.5833 14.9356L20.7653 9.7536ZM4.15874 15.1703C2.61376 16.7153 2.61375 19.2202 4.15873 20.7652C5.70372 22.3102 8.20862 22.3102 9.7536 20.7652L12.3446 18.1742C12.6375 17.8813 12.6375 17.4065 12.3446 17.1136C12.0517 16.8207 11.5768 16.8207 11.2839 17.1136L8.69294 19.7045C7.73375 20.6637 6.17859 20.6637 5.2194 19.7045C4.2602 18.7453 4.2602 17.1902 5.2194 16.231L10.4013 11.049C11.3605 10.0898 12.9157 10.0898 13.8749 11.049C14.1678 11.3419 14.6427 11.3419 14.9356 11.049C15.2284 10.7561 15.2284 10.2813 14.9356 9.98838C13.3906 8.4434 10.8857 8.4434 9.34069 9.98838L4.15874 15.1703Z" fill="black"/>
</svg>
