<svg width="24" height="24" viewBox="0 0 24 24" fill="none" xmlns="http://www.w3.org/2000/svg">
<path fill-rule="evenodd" clip-rule="evenodd" d="M14.1937 1.28235C9.32882 0.147022 4.3229 2.51268 2.11139 6.99213C-0.100131 11.4716 1.06562 16.8842 4.92506 20.0561C8.7845 23.228 14.3204 23.3232 18.2866 20.2859C18.6155 20.034 18.6779 19.5633 18.4261 19.2344C18.1742 18.9056 17.7035 18.8431 17.3746 19.095C13.9618 21.7085 9.19838 21.6266 5.87747 18.8973C2.55655 16.1679 1.55346 11.5106 3.4564 7.65617C5.35933 3.80175 9.66674 1.76619 13.8528 2.7431C18.0389 3.72 21.0003 7.45188 21.0006 11.7504V11.7505V12.7504C21.0006 13.9931 19.9933 15.0004 18.7506 15.0004C17.508 15.0004 16.5006 13.9931 16.5006 12.7504V11.8111C16.5009 11.7908 16.501 11.7704 16.501 11.7501C16.501 11.7297 16.5009 11.7094 16.5006 11.6891V7.75042C16.5006 7.33621 16.1649 7.00042 15.7506 7.00042C15.3364 7.00042 15.0006 7.33621 15.0006 7.75042V8.28559C14.151 7.48835 13.008 7.00007 11.751 7.00007C9.12767 7.00007 7.00102 9.12672 7.00102 11.7501C7.00102 14.3734 9.12767 16.5001 11.751 16.5001C13.2836 16.5001 14.6467 15.7742 15.5152 14.6476C16.1667 15.7562 17.3718 16.5004 18.7506 16.5004C20.8217 16.5004 22.5006 14.8215 22.5006 12.7504V11.7504V11.7504C22.5003 6.75475 19.0586 2.41767 14.1937 1.28235ZM15.0006 11.6996V11.8005C14.9737 13.5722 13.5291 15.0001 11.751 15.0001C9.9561 15.0001 8.50102 13.545 8.50102 11.7501C8.50102 9.95515 9.9561 8.50007 11.751 8.50007C13.5291 8.50007 14.9737 9.92797 15.0006 11.6996Z" fill="black"/>
</svg>
