<svg width="24" height="24" viewBox="0 0 24 24" fill="none" xmlns="http://www.w3.org/2000/svg">
<path d="M14.3502 15.8881C13.2987 16.9396 11.5948 16.9396 10.5433 15.8881M10.8539 3.13039C6.95165 3.76715 3.79902 6.90236 3.13931 10.801C2.7934 12.847 3.10811 14.7968 3.90086 16.4759C4.03666 16.7612 4.1174 17.0686 4.1174 17.3852V19.6505C4.1174 20.3772 4.70645 20.9663 5.43314 20.9663H7.92974C8.21601 20.9663 8.49494 21.0333 8.75736 21.1452C10.2153 21.7645 11.8605 22.0279 13.5854 21.826C17.9483 21.3159 21.4523 17.7109 21.8524 13.3352C22.4148 7.18588 17.0775 2.11376 10.8539 3.13039Z" stroke="black" stroke-width="2" stroke-linecap="round" stroke-linejoin="round"/>
</svg>
