<svg width="24" height="24" viewBox="0 0 24 24" fill="none" xmlns="http://www.w3.org/2000/svg">
<path fill-rule="evenodd" clip-rule="evenodd" d="M10.6929 2.14343C17.5658 1.02084 23.4698 6.62985 22.8482 13.4263C22.4053 18.2711 18.5358 22.2539 13.7016 22.8192C11.8011 23.0416 9.98136 22.7516 8.36637 22.0656L8.36499 22.065C8.20436 21.9965 8.0589 21.9663 7.92974 21.9663H5.43314C4.15417 21.9663 3.11739 20.9295 3.11739 19.6505V17.3852C3.11739 17.2403 3.08052 17.0792 2.99789 16.9056L2.99657 16.9028C2.11859 15.0432 1.77252 12.8866 2.1533 10.6343C2.88431 6.31425 6.36847 2.84915 10.6929 2.14343ZM9.83622 15.181C10.2267 14.7904 10.8599 14.7904 11.2504 15.181C11.9114 15.8419 12.9821 15.8419 13.6431 15.181C14.0336 14.7904 14.6668 14.7904 15.0573 15.181C15.4478 15.5715 15.4478 16.2046 15.0573 16.5952C13.6153 18.0372 11.2782 18.0372 9.83622 16.5952C9.4457 16.2046 9.4457 15.5715 9.83622 15.181Z" fill="black"/>
</svg>
