<svg width="44" height="44" viewBox="0 0 44 44" fill="none" xmlns="http://www.w3.org/2000/svg">
<circle cx="22" cy="22" r="22" fill="#6AB5F9"/>
<path d="M11.5392 31.1863L23 23V33H12.1205C11.1476 33 10.7476 31.7517 11.5392 31.1863Z" fill="white" fill-opacity="0.5"/>
<path fill-rule="evenodd" clip-rule="evenodd" d="M22 33C28.0751 33 33 28.0751 33 22C33 15.9249 28.0751 11 22 11C15.9249 11 11 15.9249 11 22C11 28.0751 15.9249 33 22 33ZM17.5 23.5C18.3284 23.5 19 22.8284 19 22C19 21.1716 18.3284 20.5 17.5 20.5C16.6716 20.5 16 21.1716 16 22C16 22.8284 16.6716 23.5 17.5 23.5ZM23.5 22C23.5 22.8284 22.8284 23.5 22 23.5C21.1716 23.5 20.5 22.8284 20.5 22C20.5 21.1716 21.1716 20.5 22 20.5C22.8284 20.5 23.5 21.1716 23.5 22ZM26.5 23.5C27.3284 23.5 28 22.8284 28 22C28 21.1716 27.3284 20.5 26.5 20.5C25.6716 20.5 25 21.1716 25 22C25 22.8284 25.6716 23.5 26.5 23.5Z" fill="white"/>
</svg>
