<svg width="24" height="24" viewBox="0 0 24 24" fill="none" xmlns="http://www.w3.org/2000/svg">
<path fill-rule="evenodd" clip-rule="evenodd" d="M1.37366 17.5806C2.68261 20.0678 4.83918 22.0394 7.45924 23.1111V11.4951L1.37366 17.5806Z" fill="#BAF15A"/>
<path fill-rule="evenodd" clip-rule="evenodd" d="M0.932572 16.6459C0.331936 15.2169 0 13.6471 0 11.9997C0 10.7574 0.188785 9.55915 0.539232 8.43213H9.14635L0.932572 16.6459Z" fill="#F0DC58"/>
<path fill-rule="evenodd" clip-rule="evenodd" d="M8.43243 23.4611C9.55946 23.8116 10.7577 24.0004 12 24.0004C13.6474 24.0004 15.2172 23.6684 16.6462 23.0678L8.43243 14.854V23.4611Z" fill="#5EF15A"/>
<path fill-rule="evenodd" clip-rule="evenodd" d="M17.5812 22.6266C20.0684 21.3177 22.0399 19.1611 23.1117 16.541H11.4956L17.5812 22.6266Z" fill="#5AE5F1"/>
<path fill-rule="evenodd" clip-rule="evenodd" d="M23.4609 15.5675C23.8113 14.4405 24.0001 13.2423 24.0001 11.9999C24.0001 10.3526 23.6682 8.7828 23.0675 7.35376L14.8538 15.5675H23.4609Z" fill="#5A9EF1"/>
<path fill-rule="evenodd" clip-rule="evenodd" d="M22.6261 6.41933C21.3172 3.93216 19.1606 1.96061 16.5405 0.888824V12.5049L22.6261 6.41933Z" fill="#6C5AF1"/>
<path fill-rule="evenodd" clip-rule="evenodd" d="M15.5681 0.539232C14.4411 0.188785 13.2428 0 12.0005 0C10.3532 0 8.78335 0.331936 7.35431 0.932572L15.5681 9.14635V0.539232Z" fill="#F1765A"/>
<path fill-rule="evenodd" clip-rule="evenodd" d="M6.41912 1.37415C3.93195 2.68309 1.9604 4.83967 0.888611 7.45973H12.5047L6.41912 1.37415Z" fill="#F1B35B"/>
</svg>
