<svg width="24" height="24" viewBox="0 0 24 24" fill="none" xmlns="http://www.w3.org/2000/svg">
<path d="M11.3249 15.717H11.6747C12.3017 15.717 12.8978 15.586 13.4364 15.3502L6.97347 8.88729V11.4199C6.97347 13.7923 8.92155 15.717 11.3249 15.717Z" fill="black"/>
<path d="M6.97347 6.05886V4.79668C6.97347 2.42335 8.92155 0.499619 11.3249 0.499619H11.6747C14.078 0.499619 16.0271 2.42335 16.0271 4.79668V11.4199C16.0271 12.4491 15.6603 13.394 15.0487 14.1341L6.97347 6.05886Z" fill="black"/>
<path d="M14.9059 16.8197C13.9125 17.4177 12.7464 17.7625 11.5004 17.7625C7.88125 17.7625 4.93732 14.8554 4.93732 11.2825C4.93732 10.7535 4.50334 10.3259 3.96861 10.3259C3.43387 10.3259 2.99989 10.7535 2.99989 11.2825C2.99989 15.5862 6.29934 19.14 10.5317 19.6174V22.543C10.5317 23.071 10.9647 23.4996 11.5004 23.4996C12.0351 23.4996 12.4691 23.071 12.4691 22.543V19.6174C13.8757 19.4587 15.1794 18.96 16.2931 18.2069L14.9059 16.8197Z" fill="black"/>
<path d="M17.8109 16.8962L16.4486 15.534C17.4533 14.3953 18.0625 12.9078 18.0625 11.2825C18.0625 10.7535 18.4965 10.3259 19.0312 10.3259C19.5659 10.3259 19.9999 10.7535 19.9999 11.2825C19.9999 13.4399 19.1708 15.4088 17.8109 16.8962Z" fill="black"/>
<path fill-rule="evenodd" clip-rule="evenodd" d="M20.9999 20.7925C20.8047 20.9878 20.4881 20.9878 20.2928 20.7926L2.99993 3.49966C2.80467 3.30439 2.80467 2.98781 2.99993 2.79255C3.19519 2.59729 3.51178 2.59729 3.70704 2.79255L20.9999 20.0854C21.1952 20.2807 21.1952 20.5973 20.9999 20.7925Z" fill="black"/>
</svg>
