<svg width="24" height="24" viewBox="0 0 24 24" fill="none" xmlns="http://www.w3.org/2000/svg">
<path fill-rule="evenodd" clip-rule="evenodd" d="M14.6763 5.29261C14.6763 4.74032 14.2286 4.29261 13.6763 4.29261C13.1241 4.29261 12.6763 4.74032 12.6763 5.29261L12.6763 10.4444C12.6763 10.7096 12.7817 10.964 12.9692 11.1515C13.1568 11.3391 13.4111 11.4444 13.6763 11.4444H18.8281C19.3804 11.4444 19.8281 10.9967 19.8281 10.4444C19.8281 9.89213 19.3804 9.44442 18.8281 9.44442H16.0906L21.6118 3.9232C22.0023 3.53268 22.0023 2.89951 21.6118 2.50899C21.2212 2.11846 20.5881 2.11846 20.1976 2.50899L14.6763 8.0302V5.29261ZM9.45995 19.1583C9.45995 19.7106 9.90766 20.1583 10.4599 20.1583C11.0122 20.1583 11.4599 19.7106 11.4599 19.1583L11.4599 14.0065C11.4599 13.7413 11.3546 13.4869 11.1671 13.2994C10.9795 13.1119 10.7252 13.0065 10.4599 13.0065L5.30814 13.0065C4.75586 13.0065 4.30814 13.4542 4.30814 14.0065C4.30814 14.5588 4.75586 15.0065 5.30814 15.0065L8.04573 15.0065L2.52452 20.5277C2.134 20.9182 2.134 21.5514 2.52452 21.9419C2.91505 22.3325 3.54821 22.3325 3.93874 21.9419L9.45995 16.4207L9.45995 19.1583Z" fill="black"/>
</svg>
