<svg width="24" height="24" viewBox="0 0 24 24" fill="none" xmlns="http://www.w3.org/2000/svg">
<path fill-rule="evenodd" clip-rule="evenodd" d="M3.43713 10.2496C3.43713 5.55521 7.24271 1.74963 11.9371 1.74963C16.6316 1.74963 20.4371 5.55521 20.4371 10.2496V11.2496V16.4996H21.0001C21.5524 16.4996 22.0001 16.9473 22.0001 17.4996C22.0001 18.0519 21.5524 18.4996 21.0001 18.4996H3.00012C2.44784 18.4996 2.00012 18.0519 2.00012 17.4996C2.00012 16.9473 2.44784 16.4996 3.00012 16.4996H3.43713V11.2496V10.2496ZM18.4371 11.2496V16.4996H5.43713V11.2496V10.2496C5.43713 6.65978 8.34728 3.74963 11.9371 3.74963C15.527 3.74963 18.4371 6.65978 18.4371 10.2496V11.2496ZM8.00012 19.9996C7.44784 19.9996 7.00012 20.4473 7.00012 20.9996C7.00012 21.5519 7.44784 21.9996 8.00012 21.9996H8.00481H8.00951H8.01423H8.01896H8.02371H8.02848H8.03326H8.03805H8.04287H8.0477H8.05254H8.0574H8.06227H8.06717H8.07207H8.07699H8.08193H8.08688H8.09185H8.09684H8.10184H8.10685H8.11188H8.11693H8.12199H8.12706H8.13216H8.13726H8.14239H8.14752H8.15268H8.15784H8.16303H8.16823H8.17344H8.17867H8.18391H8.18917H8.19444H8.19973H8.20504H8.21036H8.21569H8.22104H8.2264H8.23178H8.23718H8.24259H8.24801H8.25345H8.2589H8.26437H8.26985H8.27535H8.28086H8.28639H8.29193H8.29749H8.30306H8.30864H8.31424H8.31986H8.32549H8.33113H8.33679H8.34246H8.34815H8.35385H8.35957H8.3653H8.37104H8.3768H8.38258H8.38836H8.39417H8.39998H8.40581H8.41166H8.41752H8.42339H8.42928H8.43518H8.4411H8.44703H8.45297H8.45893H8.4649H8.47089H8.47689H8.4829H8.48893H8.49497H8.50103H8.5071H8.51318H8.51928H8.52539H8.53152H8.53766H8.54381H8.54998H8.55616H8.56235H8.56856H8.57478H8.58102H8.58727H8.59353H8.59981H8.60609H8.6124H8.61871H8.62504H8.63139H8.63775H8.64412H8.6505H8.6569H8.66331H8.66973H8.67617H8.68262H8.68908H8.69556H8.70205H8.70855H8.71507H8.7216H8.72814H8.7347H8.74127H8.74785H8.75445H8.76106H8.76768H8.77431H8.78096H8.78762H8.79429H8.80098H8.80768H8.81439H8.82112H8.82786H8.83461H8.84137H8.84815H8.85493H8.86174H8.86855H8.87538H8.88222H8.88907H8.89594H8.90281H8.9097H8.91661H8.92352H8.93045H8.93739H8.94434H8.95131H8.95828H8.96527H8.97228H8.97929H8.98632H8.99336H9.00041H9.00747H9.01455H9.02164H9.02874H9.03585H9.04298H9.05011H9.05726H9.06443H9.0716H9.07878H9.08598H9.09319H9.10041H9.10765H9.11489H9.12215H9.12942H9.1367H9.144H9.1513H9.15862H9.16595H9.17329H9.18064H9.188H9.19538H9.20277H9.21017H9.21758H9.225H9.23243H9.23988H9.24734H9.2548H9.26228H9.26978H9.27728H9.28479H9.29232H9.29986H9.30741H9.31497H9.32254H9.33012H9.33772H9.34532H9.35294H9.36057H9.36821H9.37586H9.38352H9.39119H9.39888H9.40657H9.41428H9.422H9.42973H9.43747H9.44522H9.45298H9.46075H9.46853H9.47633H9.48414H9.49195H9.49978H9.50762H9.51547H9.52333H9.5312H9.53908H9.54697H9.55487H9.56279H9.57071H9.57864H9.58659H9.59455H9.60251H9.61049H9.61848H9.62648H9.63448H9.6425H9.65053H9.65857H9.66662H9.67469H9.68276H9.69084H9.69893H9.70703H9.71515H9.72327H9.7314H9.73955H9.7477H9.75586H9.76404H9.77222H9.78042H9.78862H9.79683H9.80506H9.81329H9.82154H9.82979H9.83806H9.84633H9.85462H9.86291H9.87122H9.87953H9.88785H9.89619H9.90453H9.91288H9.92125H9.92962H9.938H9.9464H9.9548H9.96321H9.97163H9.98006H9.9885H9.99695H10.0054H10.0139H10.0224H10.0308H10.0393H10.0479H10.0564H10.0649H10.0734H10.082H10.0905H10.0991H10.1077H10.1162H10.1248H10.1334H10.142H10.1507H10.1593H10.1679H10.1766H10.1852H10.1939H10.2026H10.2113H10.2199H10.2286H10.2374H10.2461H10.2548H10.2635H10.2723H10.281H10.2898H10.2986H10.3073H10.3161H10.3249H10.3337H10.3426H10.3514H10.3602H10.3691H10.3779H10.3868H10.3956H10.4045H10.4134H10.4223H10.4312H10.4401H10.449H10.4579H10.4669H10.4758H10.4848H10.4937H10.5027H10.5117H10.5207H10.5297H10.5387H10.5477H10.5567H10.5657H10.5747H10.5838H10.5928H10.6019H10.611H10.62H10.6291H10.6382H10.6473H10.6564H10.6655H10.6747H10.6838H10.6929H10.7021H10.7112H10.7204H10.7296H10.7387H10.7479H10.7571H10.7663H10.7755H10.7847H10.794H10.8032H10.8124H10.8217H10.8309H10.8402H10.8495H10.8588H10.868H10.8773H10.8866H10.8959H10.9052H10.9146H10.9239H10.9332H10.9426H10.9519H10.9613H10.9707H10.98H10.9894H10.9988H11.0082H11.0176H11.027H11.0364H11.0458H11.0553H11.0647H11.0741H11.0836H11.0931H11.1025H11.112H11.1215H11.131H11.1404H11.1499H11.1594H11.169H11.1785H11.188H11.1975H11.2071H11.2166H11.2262H11.2357H11.2453H11.2549H11.2645H11.274H11.2836H11.2932H11.3028H11.3125H11.3221H11.3317H11.3413H11.351H11.3606H11.3703H11.3799H11.3896H11.3992H11.4089H11.4186H11.4283H11.438H11.4477H11.4574H11.4671H11.4768H11.4866H11.4963H11.506H11.5158H11.5255H11.5353H11.545H11.5548H11.5646H11.5743H11.5841H11.5939H11.6037H11.6135H11.6233H11.6331H11.643H11.6528H11.6626H11.6725H11.6823H11.6921H11.702H11.7119H11.7217H11.7316H11.7415H11.7514H11.7612H11.7711H11.781H11.7909H11.8008H11.8108H11.8207H11.8306H11.8405H11.8505H11.8604H11.8704H11.8803H11.8903H11.9002H11.9102H11.9202H11.9301H11.9401H11.9501H11.9601H11.9701H11.9801H11.9901H12.0001H12.0101H12.0201H12.0301H12.0401H12.0501H12.0601H12.0701H12.0801H12.0901H12.1H12.11H12.1199H12.1299H12.1398H12.1498H12.1597H12.1696H12.1796H12.1895H12.1994H12.2093H12.2192H12.2291H12.239H12.2489H12.2588H12.2686H12.2785H12.2884H12.2982H12.3081H12.3179H12.3278H12.3376H12.3475H12.3573H12.3671H12.3769H12.3867H12.3965H12.4063H12.4161H12.4259H12.4357H12.4454H12.4552H12.465H12.4747H12.4845H12.4942H12.504H12.5137H12.5234H12.5331H12.5428H12.5526H12.5623H12.5719H12.5816H12.5913H12.601H12.6107H12.6203H12.63H12.6396H12.6493H12.6589H12.6685H12.6782H12.6878H12.6974H12.707H12.7166H12.7262H12.7358H12.7454H12.7549H12.7645H12.7741H12.7836H12.7932H12.8027H12.8122H12.8218H12.8313H12.8408H12.8503H12.8598H12.8693H12.8788H12.8883H12.8977H12.9072H12.9166H12.9261H12.9355H12.945H12.9544H12.9638H12.9732H12.9827H12.9921H13.0015H13.0108H13.0202H13.0296H13.039H13.0483H13.0577H13.067H13.0763H13.0857H13.095H13.1043H13.1136H13.1229H13.1322H13.1415H13.1508H13.16H13.1693H13.1786H13.1878H13.197H13.2063H13.2155H13.2247H13.2339H13.2431H13.2523H13.2615H13.2707H13.2799H13.289H13.2982H13.3073H13.3165H13.3256H13.3347H13.3438H13.3529H13.362H13.3711H13.3802H13.3893H13.3983H13.4074H13.4165H13.4255H13.4345H13.4436H13.4526H13.4616H13.4706H13.4796H13.4886H13.4975H13.5065H13.5155H13.5244H13.5334H13.5423H13.5512H13.5601H13.5691H13.578H13.5869H13.5957H13.6046H13.6135H13.6223H13.6312H13.64H13.6489H13.6577H13.6665H13.6753H13.6841H13.6929H13.7017H13.7104H13.7192H13.728H13.7367H13.7454H13.7542H13.7629H13.7716H13.7803H13.789H13.7977H13.8063H13.815H13.8237H13.8323H13.841H13.8496H13.8582H13.8668H13.8754H13.884H13.8926H13.9012H13.9097H13.9183H13.9268H13.9354H13.9439H13.9524H13.9609H13.9694H13.9779H13.9864H13.9948H14.0033H14.0117H14.0202H14.0286H14.037H14.0454H14.0538H14.0622H14.0706H14.079H14.0874H14.0957H14.1041H14.1124H14.1207H14.129H14.1373H14.1456H14.1539H14.1622H14.1705H14.1787H14.187H14.1952H14.2034H14.2116H14.2198H14.228H14.2362H14.2444H14.2525H14.2607H14.2688H14.277H14.2851H14.2932H14.3013H14.3094H14.3175H14.3256H14.3336H14.3417H14.3497H14.3577H14.3658H14.3738H14.3818H14.3898H14.3977H14.4057H14.4137H14.4216H14.4295H14.4375H14.4454H14.4533H14.4612H14.469H14.4769H14.4848H14.4926H14.5005H14.5083H14.5161H14.5239H14.5317H14.5395H14.5473H14.555H14.5628H14.5705H14.5782H14.586H14.5937H14.6014H14.609H14.6167H14.6244H14.632H14.6397H14.6473H14.6549H14.6625H14.6701H14.6777H14.6853H14.6928H14.7004H14.7079H14.7154H14.723H14.7305H14.738H14.7454H14.7529H14.7604H14.7678H14.7752H14.7827H14.7901H14.7975H14.8049H14.8122H14.8196H14.827H14.8343H14.8416H14.8489H14.8562H14.8635H14.8708H14.8781H14.8854H14.8926H14.8998H14.9071H14.9143H14.9215H14.9286H14.9358H14.943H14.9501H14.9573H14.9644H14.9715H14.9786H14.9857H14.9928H14.9998H15.0069H15.0139H15.021H15.028H15.035H15.042H15.0489H15.0559H15.0629H15.0698H15.0767H15.0836H15.0905H15.0974H15.1043H15.1112H15.118H15.1249H15.1317H15.1385H15.1453H15.1521H15.1589H15.1656H15.1724H15.1791H15.1859H15.1926H15.1993H15.2059H15.2126H15.2193H15.2259H15.2326H15.2392H15.2458H15.2524H15.259H15.2655H15.2721H15.2786H15.2852H15.2917H15.2982H15.3047H15.3112H15.3176H15.3241H15.3305H15.3369H15.3433H15.3497H15.3561H15.3625H15.3689H15.3752H15.3815H15.3878H15.3941H15.4004H15.4067H15.413H15.4192H15.4255H15.4317H15.4379H15.4441H15.4503H15.4564H15.4626H15.4687H15.4748H15.481H15.4871H15.4931H15.4992H15.5053H15.5113H15.5173H15.5234H15.5294H15.5353H15.5413H15.5473H15.5532H15.5591H15.5651H15.571H15.5769H15.5827H15.5886H15.5944H15.6003H15.6061H15.6119H15.6177H15.6234H15.6292H15.6349H15.6407H15.6464H15.6521H15.6578H15.6635H15.6691H15.6748H15.6804H15.686H15.6916H15.6972H15.7028H15.7083H15.7139H15.7194H15.7249H15.7304H15.7359H15.7413H15.7468H15.7522H15.7577H15.7631H15.7685H15.7738H15.7792H15.7846H15.7899H15.7952H15.8005H15.8058H15.8111H15.8163H15.8216H15.8268H15.832H15.8372H15.8424H15.8476H15.8527H15.8579H15.863H15.8681H15.8732H15.8783H15.8833H15.8884H15.8934H15.8984H15.9034H15.9084H15.9134H15.9183H15.9233H15.9282H15.9331H15.938H15.9428H15.9477H15.9525H15.9574H15.9622H15.967H15.9718H15.9765H15.9813H15.986H15.9907H15.9954H16.0001C16.5524 21.9996 17.0001 21.5519 17.0001 20.9996C17.0001 20.4473 16.5524 19.9996 16.0001 19.9996H15.9954H15.9907H15.986H15.9813H15.9765H15.9718H15.967H15.9622H15.9574H15.9525H15.9477H15.9428H15.938H15.9331H15.9282H15.9233H15.9183H15.9134H15.9084H15.9034H15.8984H15.8934H15.8884H15.8833H15.8783H15.8732H15.8681H15.863H15.8579H15.8527H15.8476H15.8424H15.8372H15.832H15.8268H15.8216H15.8163H15.8111H15.8058H15.8005H15.7952H15.7899H15.7846H15.7792H15.7738H15.7685H15.7631H15.7577H15.7522H15.7468H15.7413H15.7359H15.7304H15.7249H15.7194H15.7139H15.7083H15.7028H15.6972H15.6916H15.686H15.6804H15.6748H15.6691H15.6635H15.6578H15.6521H15.6464H15.6407H15.6349H15.6292H15.6234H15.6177H15.6119H15.6061H15.6003H15.5944H15.5886H15.5827H15.5769H15.571H15.5651H15.5591H15.5532H15.5473H15.5413H15.5353H15.5294H15.5234H15.5173H15.5113H15.5053H15.4992H15.4931H15.4871H15.481H15.4748H15.4687H15.4626H15.4564H15.4503H15.4441H15.4379H15.4317H15.4255H15.4192H15.413H15.4067H15.4004H15.3941H15.3878H15.3815H15.3752H15.3689H15.3625H15.3561H15.3497H15.3433H15.3369H15.3305H15.3241H15.3176H15.3112H15.3047H15.2982H15.2917H15.2852H15.2786H15.2721H15.2655H15.259H15.2524H15.2458H15.2392H15.2326H15.2259H15.2193H15.2126H15.2059H15.1993H15.1926H15.1859H15.1791H15.1724H15.1656H15.1589H15.1521H15.1453H15.1385H15.1317H15.1249H15.118H15.1112H15.1043H15.0974H15.0905H15.0836H15.0767H15.0698H15.0629H15.0559H15.0489H15.042H15.035H15.028H15.021H15.0139H15.0069H14.9998H14.9928H14.9857H14.9786H14.9715H14.9644H14.9573H14.9501H14.943H14.9358H14.9286H14.9215H14.9143H14.9071H14.8998H14.8926H14.8854H14.8781H14.8708H14.8635H14.8562H14.8489H14.8416H14.8343H14.827H14.8196H14.8122H14.8049H14.7975H14.7901H14.7827H14.7752H14.7678H14.7604H14.7529H14.7454H14.738H14.7305H14.723H14.7154H14.7079H14.7004H14.6928H14.6853H14.6777H14.6701H14.6625H14.6549H14.6473H14.6397H14.632H14.6244H14.6167H14.609H14.6014H14.5937H14.586H14.5782H14.5705H14.5628H14.555H14.5473H14.5395H14.5317H14.5239H14.5161H14.5083H14.5005H14.4926H14.4848H14.4769H14.469H14.4612H14.4533H14.4454H14.4375H14.4295H14.4216H14.4137H14.4057H14.3977H14.3898H14.3818H14.3738H14.3658H14.3577H14.3497H14.3417H14.3336H14.3256H14.3175H14.3094H14.3013H14.2932H14.2851H14.277H14.2688H14.2607H14.2525H14.2444H14.2362H14.228H14.2198H14.2116H14.2034H14.1952H14.187H14.1787H14.1705H14.1622H14.1539H14.1456H14.1373H14.129H14.1207H14.1124H14.1041H14.0957H14.0874H14.079H14.0706H14.0622H14.0538H14.0454H14.037H14.0286H14.0202H14.0117H14.0033H13.9948H13.9864H13.9779H13.9694H13.9609H13.9524H13.9439H13.9354H13.9268H13.9183H13.9097H13.9012H13.8926H13.884H13.8754H13.8668H13.8582H13.8496H13.841H13.8323H13.8237H13.815H13.8063H13.7977H13.789H13.7803H13.7716H13.7629H13.7542H13.7454H13.7367H13.728H13.7192H13.7104H13.7017H13.6929H13.6841H13.6753H13.6665H13.6577H13.6489H13.64H13.6312H13.6223H13.6135H13.6046H13.5957H13.5869H13.578H13.5691H13.5601H13.5512H13.5423H13.5334H13.5244H13.5155H13.5065H13.4975H13.4886H13.4796H13.4706H13.4616H13.4526H13.4436H13.4345H13.4255H13.4165H13.4074H13.3983H13.3893H13.3802H13.3711H13.362H13.3529H13.3438H13.3347H13.3256H13.3165H13.3073H13.2982H13.289H13.2799H13.2707H13.2615H13.2523H13.2431H13.2339H13.2247H13.2155H13.2063H13.197H13.1878H13.1786H13.1693H13.16H13.1508H13.1415H13.1322H13.1229H13.1136H13.1043H13.095H13.0857H13.0763H13.067H13.0577H13.0483H13.039H13.0296H13.0202H13.0108H13.0015H12.9921H12.9827H12.9732H12.9638H12.9544H12.945H12.9355H12.9261H12.9166H12.9072H12.8977H12.8883H12.8788H12.8693H12.8598H12.8503H12.8408H12.8313H12.8218H12.8122H12.8027H12.7932H12.7836H12.7741H12.7645H12.7549H12.7454H12.7358H12.7262H12.7166H12.707H12.6974H12.6878H12.6782H12.6685H12.6589H12.6493H12.6396H12.63H12.6203H12.6107H12.601H12.5913H12.5816H12.5719H12.5623H12.5526H12.5428H12.5331H12.5234H12.5137H12.504H12.4942H12.4845H12.4747H12.465H12.4552H12.4454H12.4357H12.4259H12.4161H12.4063H12.3965H12.3867H12.3769H12.3671H12.3573H12.3475H12.3376H12.3278H12.3179H12.3081H12.2982H12.2884H12.2785H12.2686H12.2588H12.2489H12.239H12.2291H12.2192H12.2093H12.1994H12.1895H12.1796H12.1696H12.1597H12.1498H12.1398H12.1299H12.1199H12.11H12.1H12.0901H12.0801H12.0701H12.0601H12.0501H12.0401H12.0301H12.0201H12.0101H12.0001H11.9901H11.9801H11.9701H11.9601H11.9501H11.9401H11.9301H11.9202H11.9102H11.9002H11.8903H11.8803H11.8704H11.8604H11.8505H11.8405H11.8306H11.8207H11.8108H11.8008H11.7909H11.781H11.7711H11.7612H11.7514H11.7415H11.7316H11.7217H11.7119H11.702H11.6921H11.6823H11.6725H11.6626H11.6528H11.643H11.6331H11.6233H11.6135H11.6037H11.5939H11.5841H11.5743H11.5646H11.5548H11.545H11.5353H11.5255H11.5158H11.506H11.4963H11.4866H11.4768H11.4671H11.4574H11.4477H11.438H11.4283H11.4186H11.4089H11.3992H11.3896H11.3799H11.3703H11.3606H11.351H11.3413H11.3317H11.3221H11.3125H11.3028H11.2932H11.2836H11.274H11.2645H11.2549H11.2453H11.2357H11.2262H11.2166H11.2071H11.1975H11.188H11.1785H11.169H11.1594H11.1499H11.1404H11.131H11.1215H11.112H11.1025H11.0931H11.0836H11.0741H11.0647H11.0553H11.0458H11.0364H11.027H11.0176H11.0082H10.9988H10.9894H10.98H10.9707H10.9613H10.9519H10.9426H10.9332H10.9239H10.9146H10.9052H10.8959H10.8866H10.8773H10.868H10.8588H10.8495H10.8402H10.8309H10.8217H10.8124H10.8032H10.794H10.7847H10.7755H10.7663H10.7571H10.7479H10.7387H10.7296H10.7204H10.7112H10.7021H10.6929H10.6838H10.6747H10.6655H10.6564H10.6473H10.6382H10.6291H10.62H10.611H10.6019H10.5928H10.5838H10.5747H10.5657H10.5567H10.5477H10.5387H10.5297H10.5207H10.5117H10.5027H10.4937H10.4848H10.4758H10.4669H10.4579H10.449H10.4401H10.4312H10.4223H10.4134H10.4045H10.3956H10.3868H10.3779H10.3691H10.3602H10.3514H10.3426H10.3337H10.3249H10.3161H10.3073H10.2986H10.2898H10.281H10.2723H10.2635H10.2548H10.2461H10.2374H10.2286H10.2199H10.2113H10.2026H10.1939H10.1852H10.1766H10.1679H10.1593H10.1507H10.142H10.1334H10.1248H10.1162H10.1077H10.0991H10.0905H10.082H10.0734H10.0649H10.0564H10.0479H10.0393H10.0308H10.0224H10.0139H10.0054H9.99695H9.9885H9.98006H9.97163H9.96321H9.9548H9.9464H9.938H9.92962H9.92125H9.91288H9.90453H9.89619H9.88785H9.87953H9.87122H9.86291H9.85462H9.84633H9.83806H9.82979H9.82154H9.81329H9.80506H9.79683H9.78862H9.78042H9.77222H9.76404H9.75586H9.7477H9.73955H9.7314H9.72327H9.71515H9.70703H9.69893H9.69084H9.68276H9.67469H9.66662H9.65857H9.65053H9.6425H9.63448H9.62648H9.61848H9.61049H9.60251H9.59455H9.58659H9.57864H9.57071H9.56279H9.55487H9.54697H9.53908H9.5312H9.52333H9.51547H9.50762H9.49978H9.49195H9.48414H9.47633H9.46853H9.46075H9.45298H9.44522H9.43747H9.42973H9.422H9.41428H9.40657H9.39888H9.39119H9.38352H9.37586H9.36821H9.36057H9.35294H9.34532H9.33772H9.33012H9.32254H9.31497H9.30741H9.29986H9.29232H9.28479H9.27728H9.26978H9.26228H9.2548H9.24734H9.23988H9.23243H9.225H9.21758H9.21017H9.20277H9.19538H9.188H9.18064H9.17329H9.16595H9.15862H9.1513H9.144H9.1367H9.12942H9.12215H9.11489H9.10765H9.10041H9.09319H9.08598H9.07878H9.0716H9.06443H9.05726H9.05011H9.04298H9.03585H9.02874H9.02164H9.01455H9.00747H9.00041H8.99336H8.98632H8.97929H8.97228H8.96527H8.95828H8.95131H8.94434H8.93739H8.93045H8.92352H8.91661H8.9097H8.90281H8.89594H8.88907H8.88222H8.87538H8.86855H8.86174H8.85493H8.84815H8.84137H8.83461H8.82786H8.82112H8.81439H8.80768H8.80098H8.79429H8.78762H8.78096H8.77431H8.76768H8.76106H8.75445H8.74785H8.74127H8.7347H8.72814H8.7216H8.71507H8.70855H8.70205H8.69556H8.68908H8.68262H8.67617H8.66973H8.66331H8.6569H8.6505H8.64412H8.63775H8.63139H8.62504H8.61871H8.6124H8.60609H8.59981H8.59353H8.58727H8.58102H8.57478H8.56856H8.56235H8.55616H8.54998H8.54381H8.53766H8.53152H8.52539H8.51928H8.51318H8.5071H8.50103H8.49497H8.48893H8.4829H8.47689H8.47089H8.4649H8.45893H8.45297H8.44703H8.4411H8.43518H8.42928H8.42339H8.41752H8.41166H8.40581H8.39998H8.39417H8.38836H8.38258H8.3768H8.37104H8.3653H8.35957H8.35385H8.34815H8.34246H8.33679H8.33113H8.32549H8.31986H8.31424H8.30864H8.30306H8.29749H8.29193H8.28639H8.28086H8.27535H8.26985H8.26437H8.2589H8.25345H8.24801H8.24259H8.23718H8.23178H8.2264H8.22104H8.21569H8.21036H8.20504H8.19973H8.19444H8.18917H8.18391H8.17867H8.17344H8.16823H8.16303H8.15784H8.15268H8.14752H8.14239H8.13726H8.13216H8.12706H8.12199H8.11693H8.11188H8.10685H8.10184H8.09684H8.09185H8.08688H8.08193H8.07699H8.07207H8.06717H8.06227H8.0574H8.05254H8.0477H8.04287H8.03805H8.03326H8.02848H8.02371H8.01896H8.01423H8.00951H8.00481H8.00012Z" fill="black"/>
</svg>
