<svg width="24" height="24" viewBox="0 0 24 24" fill="none" xmlns="http://www.w3.org/2000/svg">
<path d="M7.73645 6.82034C7.73645 4.43427 9.67074 2.49997 12.0568 2.49997C13.2058 2.4951 14.3094 2.94813 15.1236 3.75889C15.9378 4.56964 16.3955 5.67133 16.3955 6.82034" fill="#FA6650" fill-opacity="0.2"/>
<path d="M7.73645 6.82034C7.73645 4.43427 9.67074 2.49997 12.0568 2.49997C13.2058 2.4951 14.3094 2.94813 15.1236 3.75889C15.9378 4.56964 16.3955 5.67133 16.3955 6.82034" stroke="black" stroke-width="1.5" stroke-linecap="round" stroke-linejoin="round"/>
<path d="M9.09131 10.8239H9.13708" stroke="black" stroke-width="1.5" stroke-linecap="round" stroke-linejoin="round"/>
<path d="M14.9219 10.8239H14.9677" stroke="black" stroke-width="1.5" stroke-linecap="round" stroke-linejoin="round"/>
<path d="M20.2285 15.7526L20.2307 15.768C20.5464 17.8748 20.1185 18.9683 19.4839 19.5644C18.8108 20.1967 17.7026 20.472 16.2218 20.472H7.87393C6.45459 20.472 5.34407 20.0979 4.6517 19.3956C3.97946 18.7138 3.56768 17.5851 3.82913 15.7633L3.82921 15.7633L3.83059 15.7526L4.60424 9.74538C5.02625 7.87818 6.10596 7.29004 6.94029 7.29004H17.1188C17.5703 7.29004 18.058 7.44381 18.4754 7.80849C18.8872 8.1683 19.2712 8.76993 19.4531 9.73247L20.2285 15.7526Z" stroke="black" stroke-width="1.5" stroke-linecap="round" stroke-linejoin="round"/>
</svg>
