<svg width="24" height="24" viewBox="0 0 24 24" fill="none" xmlns="http://www.w3.org/2000/svg">
<path fill-rule="evenodd" clip-rule="evenodd" d="M2 5.75C2 3.67893 3.67893 2 5.75 2H17.75C19.8211 2 21.5 3.67893 21.5 5.75V17.75C21.5 19.8211 19.8211 21.5 17.75 21.5H5.75C3.67893 21.5 2 19.8211 2 17.75V5.75ZM5.75 3.5C4.50736 3.5 3.5 4.50736 3.5 5.75V13.7653L7.09638 11.3677C8.26122 10.5911 9.82354 10.8136 10.7253 11.8845L17.5595 20H17.75C18.9926 20 20 18.9926 20 17.75V5.75C20 4.50736 18.9926 3.5 17.75 3.5H5.75ZM15.5984 20L9.57794 12.8507C9.16805 12.3639 8.4579 12.2628 7.92843 12.6158L3.5 15.5681V17.75C3.5 18.9926 4.50736 20 5.75 20H15.5984ZM14.5 7.5C14.0858 7.5 13.75 7.83579 13.75 8.25C13.75 8.66421 14.0858 9 14.5 9C14.9142 9 15.25 8.66421 15.25 8.25C15.25 7.83579 14.9142 7.5 14.5 7.5ZM12.25 8.25C12.25 7.00736 13.2574 6 14.5 6C15.7426 6 16.75 7.00736 16.75 8.25C16.75 9.49264 15.7426 10.5 14.5 10.5C13.2574 10.5 12.25 9.49264 12.25 8.25Z" fill="black"/>
</svg>
