<svg width="24" height="24" viewBox="0 0 24 24" fill="none" xmlns="http://www.w3.org/2000/svg">
<path d="M14.1029 16.1088C13.9307 15.6941 13.3623 14.9851 12.4134 14.0013C12.1601 13.7383 12.1764 13.5364 12.2669 12.9368L12.2773 12.8691C12.3388 12.4583 12.442 12.2154 13.8409 11.996C14.5515 11.8847 14.7383 12.1653 14.9974 12.554C15.0261 12.597 15.0547 12.6393 15.084 12.6815C15.3301 13.0371 15.5124 13.1184 15.7879 13.2421C15.9112 13.2975 16.0652 13.3671 16.2716 13.483C16.7605 13.7591 16.7605 14.0709 16.7605 14.7545V14.832C16.7605 15.9246 16.3536 16.5157 16.1948 16.7052C15.5886 17.2215 14.8851 17.6284 14.1143 17.8953C14.4965 17.1902 14.2041 16.353 14.1029 16.1088H14.1029ZM11.9941 5.5524C12.9915 5.5524 13.9362 5.77701 14.78 6.17874C14.3164 6.46848 13.6504 6.92165 13.3763 7.29272C13.2747 7.43012 13.1875 7.5603 13.1068 7.68011C12.8392 8.07858 12.7103 8.2563 12.4635 8.2869C12.3411 8.30185 12.177 8.29144 12.0032 8.2804C11.5371 8.25046 10.8994 8.21007 10.6952 8.75763C10.5657 9.10463 10.5429 10.0467 10.9622 10.5357C11.0293 10.6138 11.0422 10.7583 10.9967 10.9205C10.9368 11.1334 10.8157 11.263 10.7779 11.2896C10.7056 11.2486 10.5614 11.0832 10.4638 10.9706C10.2284 10.7004 9.93477 10.3638 9.55521 10.2596C9.41719 10.2219 9.26547 10.1906 9.11835 10.16C8.70653 10.0747 8.24006 9.97772 8.13167 9.74924C8.05256 9.58189 8.0529 9.35142 8.05321 9.10794C8.05321 8.79933 8.05321 8.45035 7.90021 8.11115C7.76741 7.81622 7.53335 7.65669 7.28757 7.57858C8.46338 6.33305 10.1376 5.5524 11.9941 5.5524H11.9941ZM5 11.9016C5 15.7136 8.13131 18.8036 11.9941 18.8036C15.8569 18.8036 18.9882 15.7136 18.9882 11.9016C18.9882 8.0896 15.8569 4.99963 11.9941 4.99963C8.1313 4.99963 5 8.0896 5 11.9016Z" fill="black"/>
</svg>
