<svg width="24" height="24" viewBox="0 0 24 24" fill="none" xmlns="http://www.w3.org/2000/svg">
<path d="M12.0003 22.1567C10.1357 22.1567 8.42438 21.5327 7.32232 20.6007C6.76289 20.7681 6.04707 21.0368 5.59523 21.3706C5.20845 21.6561 5.25674 21.9478 5.32653 22.0644C5.63249 22.5802 10.5745 22.3939 12.0003 22.2333V22.1567Z" fill="#FAAD08"/>
<path d="M12.0002 22.1567C13.8648 22.1567 15.5762 21.5327 16.6777 20.6007C17.2377 20.7681 17.9535 21.0368 18.4053 21.3706C18.7916 21.6561 18.7433 21.9478 18.6735 22.0644C18.3681 22.5802 13.4256 22.3939 12.0002 22.2333V22.1567Z" fill="#FAAD08"/>
<path d="M12.0118 10.9826C15.0907 10.9616 17.5583 10.3654 18.3948 10.1372C18.5066 10.1091 18.611 10.0572 18.7008 9.98496C18.7008 9.95662 18.7133 9.48379 18.7133 9.23923C18.7133 5.12854 16.7716 1 12.0007 1C7.22985 1 5.2876 5.12854 5.2876 9.23713C5.2876 9.48169 5.29967 9.95453 5.30072 9.98286C5.37004 10.0477 5.45446 10.0943 5.54632 10.1183C6.31829 10.3329 8.83204 10.9579 11.9892 10.9805L12.0118 10.9826Z" fill="black"/>
<path d="M20.3785 14.407C20.1875 13.793 19.9267 13.0766 19.6632 12.3886C19.5872 12.3785 19.5101 12.3797 19.4344 12.3923C17.0671 13.0798 14.1981 13.518 12.0113 13.4918H11.9887C9.81448 13.518 6.96433 13.0845 4.60487 12.4039C4.51647 12.3875 4.42637 12.3824 4.3367 12.3886C4.0743 13.0766 3.81191 13.793 3.62193 14.407C2.71142 17.3359 3.00635 18.5481 3.23096 18.5754C3.71272 18.6337 5.10657 16.3713 5.10657 16.3713C5.10657 18.6714 7.18264 22.2022 11.9367 22.2348H12.0632C16.8173 22.2022 18.8939 18.6714 18.8939 16.3713C18.8939 16.3713 20.2872 18.6347 20.769 18.5754C20.9936 18.5481 21.2885 17.3359 20.3785 14.407Z" fill="black"/>
<path d="M10.3018 7.0708C9.65418 7.10018 9.10104 6.36285 9.06641 5.42505C9.03177 4.48725 9.52718 3.70321 10.1748 3.67434C10.8224 3.64548 11.3739 4.38229 11.4091 5.32062C11.4442 6.25894 10.9488 7.04246 10.3018 7.07132" fill="white"/>
<path d="M14.9334 5.42508C14.8987 6.36288 14.3456 7.10021 13.698 7.07082C13.0504 7.04144 12.555 6.25792 12.5907 5.32012C12.6264 4.38232 13.1811 3.64498 13.825 3.67437C14.4689 3.70376 14.9685 4.4878 14.9334 5.4256" fill="white"/>
<path d="M16.0837 8.39741C15.911 8.01431 14.1687 7.58713 12.0118 7.58713H11.9887C9.8313 7.58713 8.08899 8.01431 7.91633 8.39741C7.90646 8.41785 7.90227 8.44058 7.90421 8.4632C7.90615 8.48583 7.91414 8.50751 7.92735 8.52598C8.07324 8.7359 10.0076 9.78863 11.9887 9.78863H12.0118C13.9924 9.78863 15.9268 8.73905 16.0726 8.52598C16.0859 8.50751 16.0939 8.48583 16.0958 8.4632C16.0977 8.44058 16.0935 8.41785 16.0837 8.39741Z" fill="#FAAD08"/>
<path d="M11.0982 5.43876C11.1281 5.80926 10.9251 6.13831 10.6453 6.17347C10.3656 6.20863 10.1142 5.93941 10.0854 5.56891C10.0565 5.1984 10.2586 4.86883 10.5378 4.8342C10.8169 4.79956 11.0694 5.06983 11.0988 5.43981" fill="black"/>
<path d="M12.8763 5.56376C12.9335 5.4588 13.3235 4.92247 14.1301 5.11874C14.34 5.17122 14.4402 5.24626 14.4607 5.27617C14.4777 5.30487 14.4873 5.33735 14.4887 5.37069C14.4901 5.40404 14.4832 5.4372 14.4686 5.4672C14.4072 5.63461 14.2807 5.62988 14.2104 5.59735C14.1652 5.57636 13.6032 5.20165 13.0857 5.76056C13.0651 5.78128 13.0374 5.7934 13.0081 5.79447C12.9789 5.79554 12.9504 5.78548 12.9283 5.76633C12.8982 5.74325 12.8769 5.71062 12.8678 5.6738C12.8587 5.63698 12.8625 5.59817 12.8784 5.56376" fill="black"/>
<path d="M12.0111 13.3567H11.9885C10.5012 13.3746 8.69858 13.1778 6.9505 12.832C6.77121 13.9066 6.71662 14.9984 6.78781 16.0857C6.98828 19.3656 8.93316 21.4249 11.9392 21.4548H12.0614C15.0675 21.4249 17.015 19.3635 17.2107 16.0846C17.2823 14.9974 17.2279 13.9056 17.0485 12.8309C15.302 13.1752 13.4988 13.372 12.0105 13.3557" fill="white"/>
<path d="M7.776 13.0822V16.3092C7.776 16.3092 9.25434 16.6078 10.7353 16.401V13.4244C9.74334 13.3647 8.75542 13.2504 7.776 13.0822Z" fill="#EB1C26"/>
<path d="M18.7 9.98489C18.7 9.98489 15.8242 10.8923 12.011 10.9164H11.9885C8.18164 10.8923 5.30893 9.98752 5.3 9.98489L4.33649 12.3884C6.74581 13.1148 9.73135 13.5829 11.9885 13.5556H12.011C14.2676 13.5829 17.2537 13.1148 19.663 12.3884L18.7 9.98489Z" fill="#EB1C26"/>
</svg>
