<svg width="24" height="24" viewBox="0 0 24 24" fill="none" xmlns="http://www.w3.org/2000/svg">
<path fill-rule="evenodd" clip-rule="evenodd" d="M2 3.99963C2 2.89506 2.89543 1.99963 4 1.99963H9C10.1046 1.99963 11 2.89506 11 3.99963V8.99963C11 10.1042 10.1046 10.9996 9 10.9996H4C2.89543 10.9996 2 10.1042 2 8.99963V3.99963ZM9 3.99963H4V8.99963H9V3.99963ZM2 14.9996C2 13.8951 2.89543 12.9996 4 12.9996H9C10.1046 12.9996 11 13.8951 11 14.9996V19.9996C11 21.1042 10.1046 21.9996 9 21.9996H4C2.89543 21.9996 2 21.1042 2 19.9996V14.9996ZM9 14.9996H4V19.9996H9V14.9996ZM15 1.99963C13.8954 1.99963 13 2.89506 13 3.99963V8.99963C13 10.1042 13.8954 10.9996 15 10.9996H20C21.1046 10.9996 22 10.1042 22 8.99963V3.99963C22 2.89506 21.1046 1.99963 20 1.99963H15ZM15 3.99963H20V8.99963H15V3.99963ZM13 13.9996C13 13.4473 13.4477 12.9996 14 12.9996H21C21.5523 12.9996 22 13.4473 22 13.9996C22 14.5519 21.5523 14.9996 21 14.9996H14C13.4477 14.9996 13 14.5519 13 13.9996ZM15 16.9996C15 16.4473 14.5523 15.9996 14 15.9996C13.4477 15.9996 13 16.4473 13 16.9996V20.2496C13 20.8019 13.4477 21.2496 14 21.2496C14.5523 21.2496 15 20.8019 15 20.2496V16.9996ZM21 15.9996C21.5523 15.9996 22 16.4473 22 16.9996V19.7496C22 20.3019 21.5523 20.7496 21 20.7496C20.4477 20.7496 20 20.3019 20 19.7496V16.9996C20 16.4473 20.4477 15.9996 21 15.9996ZM18.5 16.9996C18.5 16.4473 18.0523 15.9996 17.5 15.9996C16.9477 15.9996 16.5 16.4473 16.5 16.9996V18.9996C16.5 19.5519 16.9477 19.9996 17.5 19.9996C18.0523 19.9996 18.5 19.5519 18.5 18.9996V16.9996Z" fill="black"/>
</svg>
