<svg width="41" height="40" viewBox="0 0 41 40" fill="none" xmlns="http://www.w3.org/2000/svg">
<rect width="40" height="40" transform="translate(0.5)" fill="white"/>
<path d="M25.3992 13.7353C27.2092 13.7353 28.6765 15.2645 28.6765 17.1509V21.9896C28.6765 24.8943 26.6884 27.3151 24.0529 27.8546L21.8278 27.8542C19.1932 27.314 17.2059 24.8937 17.2059 21.9896V17.1509C17.2059 15.2645 18.6732 13.7353 20.4832 13.7353H25.3992Z" fill="#FA6650" fill-opacity="0.14"/>
<path fill-rule="evenodd" clip-rule="evenodd" d="M32.0851 11.9706C33.0597 11.9706 33.8498 12.7607 33.8498 13.7353V16.3155C33.8498 18.7152 31.9045 20.6605 29.5048 20.6605H28.6221V11.9706H32.0851ZM12.7277 11.9706V20.6605H11.8449C9.4453 20.6605 7.5 18.7152 7.5 16.3155V13.7353C7.5 12.7607 8.29009 11.9706 9.26471 11.9706H12.7277Z" stroke="url(#paint0_linear_1961_3648)" stroke-width="3"/>
<path fill-rule="evenodd" clip-rule="evenodd" d="M24.6444 8C25.7409 8 26.7335 8.44442 27.4521 9.16296C28.1706 9.88149 28.615 10.8741 28.615 11.9706V19.4706C28.615 21.6635 27.7262 23.6488 26.2891 25.0858C24.852 26.5229 22.8667 27.4118 20.6738 27.4118C18.4809 27.4118 16.4957 26.5229 15.0586 25.0858C13.6215 23.6488 12.7327 21.6635 12.7327 19.4706V11.9706C12.7327 10.8741 13.1771 9.88149 13.8956 9.16296C14.6142 8.44442 15.6068 8 16.7033 8H24.6444Z" stroke="#080808" stroke-width="3"/>
<path d="M20.6736 29.0229V31.8235" stroke="#080808" stroke-width="3" stroke-linecap="square"/>
<path d="M13.6147 32.7059H27.7324" stroke="#080808" stroke-width="3" stroke-linecap="round"/>
<defs>
<linearGradient id="paint0_linear_1961_3648" x1="33.8498" y1="16.3155" x2="7.65309" y2="16.3155" gradientUnits="userSpaceOnUse">
<stop stop-color="#FF9B94"/>
<stop offset="1" stop-color="#FA6650"/>
</linearGradient>
</defs>
</svg>
