<svg width="24" height="24" viewBox="0 0 24 24" fill="none" xmlns="http://www.w3.org/2000/svg">
<path d="M20.1887 13.2857C20.1887 12.8715 19.8529 12.5357 19.4387 12.5357C19.0245 12.5357 18.6887 12.8715 18.6887 13.2857H20.1887ZM11.7193 6.32138H12.4693V4.82138H11.7193V6.32138ZM10.9629 2.46949C10.6699 2.1767 10.1951 2.17686 9.90227 2.46985C9.60947 2.76284 9.60963 3.23771 9.90263 3.53051L10.9629 2.46949ZM13.0059 5.57138L13.5361 6.10188C13.6768 5.96121 13.7559 5.77037 13.7559 5.57137C13.7559 5.37238 13.6768 5.18154 13.536 5.04088L13.0059 5.57138ZM9.90261 7.61243C9.60963 7.90524 9.60948 8.38011 9.90229 8.67309C10.1951 8.96607 10.67 8.96622 10.9629 8.67342L9.90261 7.61243ZM18.6887 13.2857C18.6887 17.1306 15.5679 20.25 11.7193 20.25V21.75C16.3954 21.75 20.1887 17.9599 20.1887 13.2857H18.6887ZM11.7193 20.25C7.87073 20.25 4.75 17.1306 4.75 13.2857H3.25C3.25 17.9599 7.04322 21.75 11.7193 21.75V20.25ZM4.75 13.2857C4.75 9.44079 7.87073 6.32138 11.7193 6.32138V4.82138C7.04322 4.82138 3.25 8.61144 3.25 13.2857H4.75ZM9.90263 3.53051L12.4757 6.10189L13.536 5.04088L10.9629 2.46949L9.90263 3.53051ZM12.4757 5.04089L9.90261 7.61243L10.9629 8.67342L13.5361 6.10188L12.4757 5.04089Z" fill="black"/>
</svg>
