<svg width="24" height="24" viewBox="0 0 24 24" fill="none" xmlns="http://www.w3.org/2000/svg">
<path fill-rule="evenodd" clip-rule="evenodd" d="M21 12C21 16.9706 16.9706 21 12 21C7.02944 21 3 16.9706 3 12C3 7.02944 7.02944 3 12 3C16.9706 3 21 7.02944 21 12ZM23 12C23 18.0751 18.0751 23 12 23C5.92487 23 1 18.0751 1 12C1 5.92487 5.92487 1 12 1C18.0751 1 23 5.92487 23 12ZM12 17C11.4478 17 11 16.5523 11 16L11 13H8.00004C7.44775 13 7.00004 12.5523 7.00004 12C7.00004 11.4477 7.44775 11 8.00004 11H11V7.99998C11 7.44769 11.4478 6.99998 12 6.99998C12.5523 6.99998 13 7.44769 13 7.99998V11H16C16.5523 11 17 11.4477 17 12C17 12.5523 16.5523 13 16 13H13V16C13 16.5523 12.5523 17 12 17Z" fill="black"/>
</svg>
