<svg width="24" height="24" viewBox="0 0 24 24" fill="none" xmlns="http://www.w3.org/2000/svg">
<path fill-rule="evenodd" clip-rule="evenodd" d="M12 3.5C7.30621 3.5 3.5 7.30622 3.5 12C3.5 16.6938 7.30621 20.5 12 20.5C16.6948 20.5 20.5 16.6938 20.5 12C20.5 7.30616 16.6948 3.5 12 3.5ZM2 12C2 6.47779 6.47779 2 12 2C17.5233 2 22 6.47784 22 12C22 17.5222 17.5233 22 12 22C6.47779 22 2 17.5222 2 12ZM11.9951 6.75C12.4093 6.75 12.7451 7.08579 12.7451 7.5V14C12.7451 14.4142 12.4093 14.75 11.9951 14.75C11.5809 14.75 11.2451 14.4142 11.2451 14V7.5C11.2451 7.08579 11.5809 6.75 11.9951 6.75ZM12 18C12.5523 18 13 17.5523 13 17C13 16.4477 12.5523 16 12 16C11.4477 16 11 16.4477 11 17C11 17.5523 11.4477 18 12 18Z" fill="black"/>
</svg>
