<svg width="38" height="41" viewBox="0 0 38 41" fill="none" xmlns="http://www.w3.org/2000/svg">
<circle cx="19" cy="12" r="12" fill="url(#paint0_linear_726_354)"/>
<rect x="18.8391" y="0.857071" width="0.321429" height="2.03571" fill="white"/>
<rect x="18.8391" y="21.107" width="0.321429" height="2.03571" fill="white"/>
<rect width="0.324847" height="2.03597" transform="matrix(0.985602 -0.169081 0.171847 0.985124 16.9062 1.05351)" fill="white"/>
<rect width="0.324847" height="2.03595" transform="matrix(0.985602 -0.16908 0.171848 0.985123 20.4227 20.9957)" fill="white"/>
<rect width="0.325548" height="2.03578" transform="matrix(0.943332 -0.33185 0.339527 0.940596 15.037 1.58247)" fill="white"/>
<rect width="0.325548" height="2.03578" transform="matrix(0.943332 -0.33185 0.339527 0.940596 21.9637 20.6111)" fill="white"/>
<rect width="0.325548" height="2.03578" transform="matrix(0.943332 0.331851 0.339526 -0.940597 15.0368 22.4175)" fill="white"/>
<rect width="0.325548" height="2.03578" transform="matrix(0.943332 0.331849 0.339528 -0.940596 21.9634 3.38892)" fill="white"/>
<rect width="0.324847" height="2.03595" transform="matrix(0.985602 0.169081 0.171847 -0.985124 16.9061 22.9465)" fill="white"/>
<rect width="0.324847" height="2.03597" transform="matrix(0.985602 0.169082 0.171847 -0.985124 20.4225 3.00456)" fill="white"/>
<rect width="0.323725" height="2.03558" transform="matrix(0.871639 -0.490148 0.498162 0.867084 13.2889 2.4286)" fill="white"/>
<rect width="0.323722" height="2.03557" transform="matrix(0.871637 -0.490152 0.498158 0.867087 23.4149 19.9655)" fill="white"/>
<rect width="0.323725" height="2.03558" transform="matrix(0.871639 0.490148 0.498162 -0.867084 13.2892 21.5714)" fill="white"/>
<rect width="0.323722" height="2.03558" transform="matrix(0.871637 0.490152 0.498158 -0.867086 23.4149 4.03481)" fill="white"/>
<rect width="0.321818" height="2.0356" transform="matrix(0.769141 -0.63908 0.642186 0.766549 11.7141 3.56628)" fill="white"/>
<rect width="0.321821" height="2.03562" transform="matrix(0.76914 -0.639081 0.642185 0.76655 24.7307 19.0791)" fill="white"/>
<rect width="0.321819" height="2.03561" transform="matrix(0.769141 0.639079 0.642186 -0.766549 11.7139 20.4336)" fill="white"/>
<rect width="0.32182" height="2.03561" transform="matrix(0.769142 0.639077 0.642188 -0.766547 24.7307 4.9209)" fill="white"/>
<rect width="0.321525" height="2.03589" transform="matrix(0.639063 -0.769155 0.766534 0.642203 10.3605 4.96176)" fill="white"/>
<rect width="0.321527" height="2.03591" transform="matrix(0.639064 -0.769154 0.766535 0.642202 25.8731 17.9783)" fill="white"/>
<rect width="0.321526" height="2.0359" transform="matrix(0.639062 0.769155 0.766534 -0.642204 10.3604 19.0384)" fill="white"/>
<rect width="0.321527" height="2.0359" transform="matrix(0.639065 0.769152 0.766537 -0.642201 25.8729 6.02151)" fill="white"/>
<rect width="0.322828" height="2.03638" transform="matrix(0.490022 -0.87171 0.866981 0.498341 9.26892 6.57059)" fill="white"/>
<rect width="0.322825" height="2.03637" transform="matrix(0.490026 -0.871708 0.866984 0.498336 26.8074 16.6958)" fill="white"/>
<rect width="0.322825" height="2.03637" transform="matrix(0.490022 0.87171 0.866981 -0.49834 9.26892 17.4294)" fill="white"/>
<rect width="0.322828" height="2.03638" transform="matrix(0.490021 0.87171 0.866981 -0.498341 26.8074 7.3042)" fill="white"/>
<rect width="0.324221" height="2.03667" transform="matrix(0.331665 -0.943397 0.940432 0.339983 8.47308 8.34329)" fill="white"/>
<rect width="0.32422" height="2.03667" transform="matrix(0.331666 -0.943397 0.940432 0.339983 27.5027 15.2697)" fill="white"/>
<rect width="0.32422" height="2.03667" transform="matrix(0.331665 0.943397 0.940432 -0.339983 8.47394 15.6569)" fill="white"/>
<rect width="0.324221" height="2.03667" transform="matrix(0.331666 0.943397 0.940432 -0.339983 27.5033 8.73032)" fill="white"/>
<rect width="0.323804" height="2.03634" transform="matrix(0.168999 -0.985616 0.985041 0.172317 7.99799 10.2261)" fill="white"/>
<rect width="0.323805" height="2.03635" transform="matrix(0.169 -0.985616 0.985042 0.172316 27.9406 13.7427)" fill="white"/>
<rect width="0.323805" height="2.03634" transform="matrix(0.168999 0.985616 0.985041 -0.172317 7.99854 13.7738)" fill="white"/>
<rect width="0.323805" height="2.03635" transform="matrix(0.168999 0.985616 0.985042 -0.172317 27.9409 10.2578)" fill="white"/>
<rect x="7.85706" y="12.1609" width="0.321429" height="2.03571" transform="rotate(-90 7.85706 12.1609)" fill="white"/>
<rect x="28.1069" y="12.1609" width="0.321429" height="2.03571" transform="rotate(-90 28.1069 12.1609)" fill="white"/>
<rect width="0.322344" height="1.28588" transform="matrix(0.996283 -0.0861441 0.086412 0.99626 17.869 0.913422)" fill="white"/>
<rect width="0.322344" height="1.28587" transform="matrix(0.996283 -0.0861445 0.0864116 0.99626 19.699 21.8336)" fill="white"/>
<rect width="0.322344" height="1.28588" transform="matrix(0.996283 0.0861449 -0.0864112 0.99626 19.8107 0.88559)" fill="white"/>
<rect width="0.322344" height="1.28587" transform="matrix(0.996283 0.0861448 -0.0864113 0.99626 17.9802 21.8057)" fill="white"/>
<rect width="0.324432" height="1.28607" transform="matrix(0.967607 -0.252461 0.256067 0.966659 15.9598 1.27754)" fill="white"/>
<rect width="0.324439" height="1.28607" transform="matrix(0.967608 -0.252457 0.256071 0.966658 21.3958 21.5615)" fill="white"/>
<rect width="0.324431" height="1.28606" transform="matrix(0.967607 0.252461 0.256067 -0.966659 15.9598 22.7225)" fill="white"/>
<rect width="0.324439" height="1.28607" transform="matrix(0.967608 0.252457 0.256071 -0.966658 21.3958 2.43848)" fill="white"/>
<rect width="0.324136" height="1.28585" transform="matrix(0.910708 -0.413051 0.419554 0.90773 14.1449 1.96761)" fill="white"/>
<rect width="0.324137" height="1.28587" transform="matrix(0.910705 -0.413058 0.419547 0.907734 23.0205 20.9998)" fill="white"/>
<rect width="0.324137" height="1.28587" transform="matrix(0.910708 0.413051 0.419554 -0.90773 14.1449 22.0327)" fill="white"/>
<rect width="0.324136" height="1.28585" transform="matrix(0.910708 0.413051 0.419554 -0.90773 23.0205 3.0005)" fill="white"/>
<rect width="0.322469" height="1.28564" transform="matrix(0.823752 -0.566951 0.571794 0.820397 12.4769 2.9631)" fill="white"/>
<rect width="0.322466" height="1.28564" transform="matrix(0.823748 -0.566956 0.571788 0.820401 24.5224 20.1647)" fill="white"/>
<rect width="0.32247" height="1.28565" transform="matrix(0.823752 0.56695 0.571795 -0.820397 12.4764 21.0369)" fill="white"/>
<rect width="0.322466" height="1.28563" transform="matrix(0.823751 0.566952 0.571792 -0.820398 24.5221 3.83525)" fill="white"/>
<rect x="11.0065" y="4.23473" width="0.321429" height="1.28572" transform="rotate(-45 11.0065 4.23473)" fill="white"/>
<rect width="0.321431" height="1.28572" transform="matrix(0.707108 -0.707105 0.707108 0.707105 25.8559 19.0838)" fill="white"/>
<rect width="0.321931" height="1.28615" transform="matrix(0.566863 -0.823812 0.820328 0.571893 9.77985 5.74223)" fill="white"/>
<rect width="0.321931" height="1.28615" transform="matrix(0.566869 -0.823808 0.820332 0.571888 26.9827 17.7871)" fill="white"/>
<rect width="0.321931" height="1.28615" transform="matrix(0.566864 0.823811 0.820328 -0.571893 9.77985 18.2578)" fill="white"/>
<rect width="0.321931" height="1.28615" transform="matrix(0.566869 0.823808 0.820332 -0.571888 26.9827 6.21292)" fill="white"/>
<rect width="0.323177" height="1.28664" transform="matrix(0.412808 -0.910818 0.907547 0.41995 8.8324 7.4393)" fill="white"/>
<rect width="0.323177" height="1.28663" transform="matrix(0.412806 -0.910819 0.907546 0.419952 27.8661 16.3143)" fill="white"/>
<rect width="0.323177" height="1.28664" transform="matrix(0.412808 0.910818 0.907547 -0.41995 8.8324 16.561)" fill="white"/>
<rect width="0.323177" height="1.28663" transform="matrix(0.412806 0.910819 0.907546 -0.419952 27.8661 7.68596)" fill="white"/>
<rect width="0.3235" height="1.28658" transform="matrix(0.252251 -0.967662 0.966505 0.256649 8.19519 9.27362)" fill="white"/>
<rect width="0.323493" height="1.28658" transform="matrix(0.252258 -0.96766 0.966507 0.256642 28.4795 14.709)" fill="white"/>
<rect width="0.323492" height="1.28658" transform="matrix(0.252251 0.967662 0.966505 -0.256649 8.19513 14.7262)" fill="white"/>
<rect width="0.323499" height="1.28658" transform="matrix(0.252253 0.967661 0.966505 -0.256647 28.4794 9.29103)" fill="white"/>
<rect width="0.322074" height="1.28593" transform="matrix(0.0861131 -0.996285 0.996242 0.0866166 7.88562 11.1898)" fill="white"/>
<rect width="0.322074" height="1.28593" transform="matrix(0.0861135 -0.996285 0.996242 0.0866162 28.8063 13.0199)" fill="white"/>
<rect width="0.322075" height="1.28593" transform="matrix(0.0861135 0.996285 0.996242 -0.0866161 7.88507 12.8102)" fill="white"/>
<rect width="0.322075" height="1.28593" transform="matrix(0.0861135 0.996285 0.996242 -0.0866161 28.8057 10.9801)" fill="white"/>
<rect width="0.322075" height="1.28593" transform="matrix(-0.0861137 -0.996285 0.996242 -0.0866159 7.91376 13.1316)" fill="white"/>
<rect width="0.322075" height="1.28593" transform="matrix(-0.086114 -0.996285 0.996242 -0.0866157 28.8336 11.3012)" fill="white"/>
<rect width="0.322074" height="1.28593" transform="matrix(-0.0861131 0.996285 0.996242 0.0866165 7.91376 10.8684)" fill="white"/>
<rect width="0.322075" height="1.28593" transform="matrix(-0.0861136 0.996285 0.996242 0.0866161 28.8336 12.6988)" fill="white"/>
<g filter="url(#filter0_d_726_354)">
<path d="M26.8794 4.1209L19.7579 12.7577L18.2426 11.2425L26.8794 4.1209Z" fill="#FE3C30"/>
<path d="M11.1211 19.8794L19.7579 12.7578L18.2427 11.2426L11.1211 19.8794Z" fill="white"/>
</g>
<defs>
<filter id="filter0_d_726_354" x="0.962424" y="4.1209" width="36.0758" height="36.076" filterUnits="userSpaceOnUse" color-interpolation-filters="sRGB">
<feFlood flood-opacity="0" result="BackgroundImageFix"/>
<feColorMatrix in="SourceAlpha" type="matrix" values="0 0 0 0 0 0 0 0 0 0 0 0 0 0 0 0 0 0 127 0" result="hardAlpha"/>
<feOffset dy="10.1587"/>
<feGaussianBlur stdDeviation="5.07937"/>
<feColorMatrix type="matrix" values="0 0 0 0 0 0 0 0 0 0 0 0 0 0 0 0 0 0 0.25 0"/>
<feBlend mode="normal" in2="BackgroundImageFix" result="effect1_dropShadow_726_354"/>
<feBlend mode="normal" in="SourceGraphic" in2="effect1_dropShadow_726_354" result="shape"/>
</filter>
<linearGradient id="paint0_linear_726_354" x1="19" y1="0.0369225" x2="19" y2="23.9631" gradientUnits="userSpaceOnUse">
<stop stop-color="#1BC9FA"/>
<stop offset="0.760051" stop-color="#1F70F0"/>
</linearGradient>
</defs>
</svg>
