<svg width="24" height="24" viewBox="0 0 24 24" fill="none" xmlns="http://www.w3.org/2000/svg">
<path d="M4 11.9996C4 11.4473 4.44772 10.9996 5 10.9996H19C19.5523 10.9996 20 11.4473 20 11.9996C20 12.5519 19.5523 12.9996 19 12.9996H5C4.44772 12.9996 4 12.5519 4 11.9996Z" fill="black"/>
<path d="M8.5 3.49963C9.05228 3.49963 9.5 3.05192 9.5 2.49963C9.5 1.94735 9.05228 1.49963 8.5 1.49963V3.49963ZM1.5 8.49963C1.5 9.05192 1.94772 9.49963 2.5 9.49963C3.05228 9.49963 3.5 9.05192 3.5 8.49963H1.5ZM5.5 3.49963H8.5V1.49963H5.5V3.49963ZM3.5 8.49963V5.49963H1.5V8.49963H3.5ZM5.5 1.49963C3.29086 1.49963 1.5 3.29049 1.5 5.49963H3.5C3.5 4.39506 4.39543 3.49963 5.5 3.49963V1.49963Z" fill="black"/>
<path d="M15.5 20.4996C14.9477 20.4996 14.5 20.9473 14.5 21.4996C14.5 22.0519 14.9477 22.4996 15.5 22.4996L15.5 20.4996ZM22.5 15.4996C22.5 14.9473 22.0523 14.4996 21.5 14.4996C20.9477 14.4996 20.5 14.9473 20.5 15.4996L22.5 15.4996ZM18.5 20.4996L15.5 20.4996L15.5 22.4996L18.5 22.4996L18.5 20.4996ZM20.5 15.4996L20.5 18.4996L22.5 18.4996L22.5 15.4996L20.5 15.4996ZM18.5 22.4996C20.7091 22.4996 22.5 20.7088 22.5 18.4996L20.5 18.4996C20.5 19.6042 19.6046 20.4996 18.5 20.4996L18.5 22.4996Z" fill="black"/>
<path d="M20.5 8.49963C20.5 9.05192 20.9477 9.49963 21.5 9.49963C22.0523 9.49963 22.5 9.05192 22.5 8.49963L20.5 8.49963ZM15.5 1.49963C14.9477 1.49963 14.5 1.94735 14.5 2.49963C14.5 3.05192 14.9477 3.49963 15.5 3.49963L15.5 1.49963ZM20.5 5.49963L20.5 8.49963L22.5 8.49963L22.5 5.49963L20.5 5.49963ZM15.5 3.49963L18.5 3.49963L18.5 1.49963L15.5 1.49963L15.5 3.49963ZM22.5 5.49963C22.5 3.29049 20.7091 1.49963 18.5 1.49963L18.5 3.49963C19.6046 3.49963 20.5 4.39506 20.5 5.49963L22.5 5.49963Z" fill="black"/>
<path d="M3.5 15.4996C3.5 14.9473 3.05229 14.4996 2.5 14.4996C1.94772 14.4996 1.5 14.9473 1.5 15.4996L3.5 15.4996ZM8.5 22.4996C9.05228 22.4996 9.5 22.0519 9.5 21.4996C9.5 20.9473 9.05228 20.4996 8.5 20.4996L8.5 22.4996ZM3.5 18.4996L3.5 15.4996L1.5 15.4996L1.5 18.4996L3.5 18.4996ZM8.5 20.4996L5.5 20.4996L5.5 22.4996L8.5 22.4996L8.5 20.4996ZM1.5 18.4996C1.5 20.7088 3.29086 22.4996 5.5 22.4996L5.5 20.4996C4.39543 20.4996 3.5 19.6042 3.5 18.4996L1.5 18.4996Z" fill="black"/>
</svg>
