<svg width="24" height="24" viewBox="0 0 24 24" fill="none" xmlns="http://www.w3.org/2000/svg">
<path fill-rule="evenodd" clip-rule="evenodd" d="M16.0488 11.024C16.0488 13.7989 13.7993 16.0484 11.0244 16.0484C8.2495 16.0484 6 13.7989 6 11.024C6 8.24913 8.2495 5.99963 11.0244 5.99963C13.7993 5.99963 16.0488 8.24913 16.0488 11.024ZM15.234 16.6478C14.0608 17.5274 12.6035 18.0484 11.0244 18.0484C7.14493 18.0484 4 14.9035 4 11.024C4 7.14456 7.14493 3.99963 11.0244 3.99963C14.9039 3.99963 18.0488 7.14456 18.0488 11.024C18.0488 12.6031 17.5277 14.0605 16.6482 15.2336L19.9266 18.512C20.3171 18.9026 20.3171 19.5357 19.9266 19.9263C19.5361 20.3168 18.9029 20.3168 18.5124 19.9263L15.234 16.6478Z" fill="black"/>
</svg>
