<svg width="24" height="24" viewBox="0 0 24 24" fill="none" xmlns="http://www.w3.org/2000/svg">
<path fill-rule="evenodd" clip-rule="evenodd" d="M16.5693 11.2843C16.5693 14.7552 13.7556 17.569 10.2847 17.569C6.81374 17.569 4 14.7552 4 11.2843C4 7.81337 6.81374 4.99963 10.2847 4.99963C13.7556 4.99963 16.5693 7.81337 16.5693 11.2843ZM15.3931 17.807C13.9857 18.9108 12.212 19.569 10.2847 19.569C5.70917 19.569 2 15.8598 2 11.2843C2 6.7088 5.70917 2.99963 10.2847 2.99963C14.8602 2.99963 18.5693 6.7088 18.5693 11.2843C18.5693 13.2117 17.9112 14.9853 16.8073 16.3928L20.6572 20.2426C21.0477 20.6331 21.0477 21.2663 20.6572 21.6568C20.2666 22.0473 19.6335 22.0473 19.2429 21.6568L15.3931 17.807Z" fill="black"/>
</svg>
