<svg width="24" height="24" viewBox="0 0 24 24" fill="none" xmlns="http://www.w3.org/2000/svg">
<path fill-rule="evenodd" clip-rule="evenodd" d="M12.5 3.28834L19.5 7.32979C19.8094 7.50842 20 7.83855 20 8.19582V16.2787C20 16.636 19.8094 16.9661 19.5 17.1447L12.5 21.1862C12.1906 21.3648 11.8094 21.3648 11.5 21.1862L4.5 17.1447C4.1906 16.9661 4 16.636 4 16.2787V8.19582C4 7.83855 4.1906 7.50842 4.5 7.32979L11.5 3.28834C11.8094 3.10971 12.1906 3.10971 12.5 3.28834ZM10.5 1.55629C11.4282 1.02039 12.5718 1.02039 13.5 1.55629L20.5 5.59774C21.4282 6.13364 22 7.12402 22 8.19582V16.2787C22 17.3505 21.4282 18.3409 20.5 18.8768L13.5 22.9183C12.5718 23.4541 11.4282 23.4541 10.5 22.9183L3.5 18.8768C2.5718 18.3409 2 17.3505 2 16.2787V8.19582C2 7.12402 2.5718 6.13364 3.5 5.59774L10.5 1.55629ZM13.8491 12.2373C13.8491 13.2585 13.0212 14.0863 12.0001 14.0863C10.9789 14.0863 10.1511 13.2585 10.1511 12.2373C10.1511 11.2161 10.9789 10.3883 12.0001 10.3883C13.0212 10.3883 13.8491 11.2161 13.8491 12.2373ZM15.8491 12.2373C15.8491 14.363 14.1258 16.0863 12.0001 16.0863C9.87432 16.0863 8.15106 14.363 8.15106 12.2373C8.15106 10.1115 9.87432 8.38827 12.0001 8.38827C14.1258 8.38827 15.8491 10.1115 15.8491 12.2373Z" fill="black"/>
</svg>
