<svg width="24" height="24" viewBox="0 0 24 24" fill="none" xmlns="http://www.w3.org/2000/svg">
<path fill-rule="evenodd" clip-rule="evenodd" d="M12 2.75C6.89137 2.75 2.75 6.89137 2.75 12C2.75 17.1086 6.89137 21.25 12 21.25C17.1086 21.25 21.25 17.1086 21.25 12C21.25 6.89137 17.1086 2.75 12 2.75ZM1.25 12C1.25 6.06294 6.06294 1.25 12 1.25C17.9371 1.25 22.75 6.06294 22.75 12C22.75 17.9371 17.9371 22.75 12 22.75C6.06294 22.75 1.25 17.9371 1.25 12ZM8 9.5C8.55228 9.5 9 9.94771 9 10.5V11.5C9 12.0523 8.55228 12.5 8 12.5C7.44772 12.5 7 12.0523 7 11.5V10.5C7 9.94771 7.44772 9.5 8 9.5ZM16 9.5C16.5523 9.5 17 9.94771 17 10.5V11.5C17 12.0523 16.5523 12.5 16 12.5C15.4477 12.5 15 12.0523 15 11.5V10.5C15 9.94771 15.4477 9.5 16 9.5ZM9.01918 15.286C8.72026 14.9993 8.24549 15.0092 7.95875 15.3081C7.67202 15.607 7.68189 16.0818 7.98082 16.3685C8.99773 17.344 10.3708 17.7877 12 17.7877C13.6292 17.7877 15.0023 17.344 16.0192 16.3685C16.3181 16.0818 16.328 15.607 16.0412 15.3081C15.7545 15.0092 15.2797 14.9993 14.9808 15.286C14.3152 15.9245 13.355 16.2877 12 16.2877C10.645 16.2877 9.6848 15.9245 9.01918 15.286Z" fill="black"/>
</svg>
