<svg width="41" height="40" viewBox="0 0 41 40" fill="none" xmlns="http://www.w3.org/2000/svg">
<rect width="40" height="40" transform="translate(0.5)" fill="white"/>
<path d="M17.1945 33.4706C18.6565 33.4706 19.8416 32.2855 19.8416 30.8236C19.8416 29.3616 18.6565 28.1765 17.1945 28.1765C15.7326 28.1765 14.5475 29.3616 14.5475 30.8236C14.5475 32.2855 15.7326 33.4706 17.1945 33.4706Z" stroke="url(#paint0_linear_1961_3665)" stroke-width="3"/>
<path d="M28.665 33.4706C30.1269 33.4706 31.3121 32.2855 31.3121 30.8236C31.3121 29.3616 30.1269 28.1765 28.665 28.1765C27.2031 28.1765 26.0179 29.3616 26.0179 30.8236C26.0179 32.2855 27.2031 33.4706 28.665 33.4706Z" stroke="url(#paint1_linear_1961_3665)" stroke-width="3"/>
<path d="M20.5536 20.0541L20.6229 20.2348L25.5537 20.2351C26.2624 20.2351 26.9256 19.8965 27.3451 19.3288L27.4374 19.1938L31.3623 12.9865C31.408 12.9142 31.4323 12.8303 31.4323 12.7446C31.4323 12.5237 31.2743 12.3399 31.0659 12.3018L30.9856 12.2945L17.26 12.2939L20.5536 20.0541Z" fill="#FA6650" fill-opacity="0.14"/>
<path d="M11.8796 8.85794H29.4465C30.4211 8.85794 31.2112 9.64803 31.2112 10.6226C31.2112 10.9586 31.1153 11.2875 30.9348 11.5709L27.0586 17.655C26.4106 18.6721 25.288 19.288 24.082 19.288H16.3124" stroke="#080808" stroke-width="3" stroke-linecap="round" stroke-linejoin="round"/>
<path d="M7.5 7H9.31167C10.3714 7 11.329 7.63203 11.7456 8.60644L15.8931 18.3073C16.151 18.9103 16.0531 19.6065 15.6391 20.1151L14.5225 21.4868C14.0526 22.0641 14.1396 22.9131 14.7169 23.383C14.9573 23.5787 15.2578 23.6856 15.5678 23.6856H31.4663" stroke="#080808" stroke-width="3" stroke-linecap="round" stroke-linejoin="round"/>
<defs>
<linearGradient id="paint0_linear_1961_3665" x1="19.8416" y1="30.8236" x2="14.5782" y2="30.8236" gradientUnits="userSpaceOnUse">
<stop stop-color="#FF9B94"/>
<stop offset="1" stop-color="#FA6650"/>
</linearGradient>
<linearGradient id="paint1_linear_1961_3665" x1="31.3121" y1="30.8236" x2="26.0179" y2="30.8236" gradientUnits="userSpaceOnUse">
<stop stop-color="#FF9B94"/>
<stop offset="0.99419" stop-color="#FA6650"/>
</linearGradient>
</defs>
</svg>
