<svg width="24" height="24" viewBox="0 0 24 24" fill="none" xmlns="http://www.w3.org/2000/svg">
<path d="M9.73172 6.09682V8.87951C2.39214 8.3393 0 16.4852 0 19.0215V19.6552C2.39372 13.9505 7.93682 13.9505 9.73172 13.9505V16.9802C9.73172 17.2297 10.03 17.3583 10.2114 17.1869L15.9717 11.7445C16.0905 11.6323 16.0904 11.4433 15.9717 11.3311L10.2113 5.89009C10.03 5.7188 9.73172 5.84737 9.73172 6.09682Z" fill="black"/>
<path d="M19.9549 3.5897C19.662 3.29681 19.1871 3.29681 18.8942 3.5897C18.6013 3.88259 18.6013 4.35747 18.8942 4.65036C22.7018 8.45797 22.7018 14.6313 18.8942 18.4389C18.6013 18.7318 18.6013 19.2067 18.8942 19.4996C19.1871 19.7925 19.662 19.7925 19.9549 19.4996C24.3483 15.1062 24.3483 7.9831 19.9549 3.5897Z" fill="black"/>
<path d="M17.1265 6.41807C16.8336 6.12518 16.3588 6.12518 16.0659 6.41807C15.773 6.71096 15.773 7.18584 16.0659 7.47873C18.3114 9.72425 18.3114 13.3649 16.0659 15.6105C15.773 15.9034 15.773 16.3782 16.0659 16.6711C16.3588 16.964 16.8336 16.964 17.1265 16.6711C19.9578 13.8398 19.9578 9.24937 17.1265 6.41807Z" fill="black"/>
</svg>
