<svg width="145" height="54" viewBox="0 0 145 54" fill="none" xmlns="http://www.w3.org/2000/svg">
<path fill-rule="evenodd" clip-rule="evenodd" d="M11.9723 25.756C11.9723 28.7111 14.3117 31.1148 17.1867 31.1148C20.0619 31.1148 22.4011 28.7111 22.4011 25.756C22.4011 22.8008 20.0619 20.3966 17.1867 20.3966C14.3117 20.3966 11.9723 22.8008 11.9723 25.756ZM17.1867 16.3473C19.1234 16.3473 20.9201 16.9702 22.4011 18.0288V8.03174H26.3418V35.0755H22.4011V33.4829C20.9201 34.5415 19.1234 35.1644 17.1867 35.1644C12.1386 35.1644 8.03177 30.9438 8.03177 25.756C8.03177 20.5679 12.1386 16.3473 17.1867 16.3473ZM38.0726 31.1149C35.1976 31.1149 32.8582 28.7112 32.8582 25.7561C32.8582 22.801 35.1976 20.3968 38.0726 20.3968C40.9476 20.3968 43.287 22.801 43.287 25.7561C43.287 28.7112 40.9476 31.1149 38.0726 31.1149ZM38.0726 16.3474C33.0246 16.3474 28.9177 20.568 28.9177 25.7561C28.9177 30.9439 33.0246 35.1645 38.0726 35.1645C43.1207 35.1645 47.2278 30.9439 47.2278 25.7561C47.2278 20.568 43.1207 16.3474 38.0726 16.3474ZM101.604 31.1149C98.7294 31.1149 96.39 28.7112 96.39 25.7561C96.39 22.801 98.7294 20.3968 101.604 20.3968C104.48 20.3968 106.819 22.801 106.819 25.7561C106.819 28.7112 104.48 31.1149 101.604 31.1149ZM101.604 16.3474C96.5564 16.3474 92.4495 20.568 92.4495 25.7561C92.4495 30.9439 96.5564 35.1645 101.604 35.1645C106.653 35.1645 110.76 30.9439 110.76 25.7561C110.76 20.568 106.653 16.3474 101.604 16.3474ZM64.1728 25.7561C64.1728 28.7113 61.8336 31.1149 58.9581 31.1149C56.0826 31.1149 53.7437 28.7113 53.7437 25.7561C53.7437 22.801 56.0826 20.3968 58.9581 20.3968C61.8336 20.3968 64.1728 22.801 64.1728 25.7561ZM49.8032 25.7561C49.8032 30.944 53.9098 35.1645 58.9581 35.1645C64.0061 35.1645 68.1135 30.944 68.1135 25.7561C68.1135 23.7658 67.5072 21.9191 66.4768 20.3968H68.1146V16.3472H58.9581C53.9098 16.3472 49.8032 20.568 49.8032 25.7561ZM58.9555 40.9676C56.08 40.9676 53.7411 38.5637 53.7411 35.6089H49.8004C49.8004 40.797 53.9072 45.0175 58.9555 45.0175C64.0036 45.0175 68.111 40.797 68.111 35.6089H64.1702C64.1702 38.5637 61.831 40.9676 58.9555 40.9676ZM80.4779 31.1148C77.603 31.1148 75.2635 28.7112 75.2635 25.756C75.2635 22.8009 77.603 20.3967 80.4779 20.3967C83.3532 20.3967 85.6923 22.8009 85.6923 25.756C85.6923 28.7112 83.3532 31.1148 80.4779 31.1148ZM85.6923 18.0288C84.2113 16.9702 82.4146 16.3474 80.4779 16.3474C75.4299 16.3474 71.323 20.5679 71.323 25.756C71.323 30.9439 75.4299 35.1644 80.4779 35.1644C82.4146 35.1644 84.2113 34.5415 85.6923 33.4829V35.0755H89.6331V8.03178H85.6923V18.0288ZM125.112 18.3601C126.325 17.1171 127.997 16.3473 129.841 16.3473C133.535 16.3473 136.54 19.4354 136.54 23.2317V35.1657H132.6V23.2317C132.6 21.6686 131.362 20.3969 129.841 20.3969C128.32 20.3969 127.083 21.6686 127.083 23.2317V35.1657H123.142V23.2317C123.142 21.6686 121.905 20.3969 120.384 20.3969C118.863 20.3969 117.625 21.6686 117.625 23.2317V35.1657H113.685V23.2317C113.685 19.4354 116.69 16.3473 120.384 16.3473C122.228 16.3473 123.9 17.1171 125.112 18.3601Z" fill="#FA6650"/>
</svg>
