<svg width="24" height="24" viewBox="0 0 24 24" fill="none" xmlns="http://www.w3.org/2000/svg">
<path fill-rule="evenodd" clip-rule="evenodd" d="M24 5.20949C23.1175 5.58418 22.1673 5.83754 21.1719 5.95221C22.1885 5.36817 22.9693 4.44544 23.3364 3.34536C22.3848 3.8854 21.3315 4.27742 20.209 4.48811C19.311 3.57204 18.0318 3 16.6156 3C13.8962 3 11.6908 5.10948 11.6908 7.71234C11.6908 8.08303 11.736 8.44172 11.8193 8.78708C7.7275 8.59107 4.10025 6.7136 1.67173 3.86273C1.24674 4.55878 1.00529 5.36817 1.00529 6.23223C1.00529 7.86701 1.87504 9.30978 3.1952 10.1538C2.38757 10.1298 1.62796 9.91783 0.965761 9.56447V9.62447C0.965761 11.9073 2.66149 13.8114 4.91493 14.2448C4.50124 14.3528 4.06777 14.4101 3.61737 14.4101C3.30109 14.4101 2.99188 14.3808 2.69114 14.3248C3.31804 16.1969 5.1366 17.5597 7.29121 17.5984C5.60536 18.8611 3.48182 19.6145 1.17473 19.6145C0.777974 19.6145 0.385457 19.5932 0 19.5492C2.17861 20.8866 4.76668 21.6667 7.54818 21.6667C16.6043 21.6667 21.5574 14.4862 21.5574 8.25904C21.5574 8.05369 21.5517 7.85235 21.5432 7.64967C22.5048 6.98562 23.3406 6.15489 24 5.21082V5.20949Z" fill="#4DA0EC"/>
</svg>
