<svg width="24" height="24" viewBox="0 0 24 24" fill="none" xmlns="http://www.w3.org/2000/svg">
<path fill-rule="evenodd" clip-rule="evenodd" d="M7.65536 8.12668C7.65536 5.72762 9.60036 3.78308 11.9998 3.78308H16.3443V8.12668C16.3443 10.5259 14.3991 12.4712 11.9998 12.4712C9.60058 12.4712 7.65536 10.5259 7.65536 8.12668ZM11.9998 1.78308C8.49623 1.78308 5.65536 4.62262 5.65536 8.12668C5.65536 11.6305 8.49601 14.4712 11.9998 14.4712C15.5037 14.4712 18.3443 11.6305 18.3443 8.12668V2.78308C18.3443 2.2308 17.8966 1.78308 17.3443 1.78308H11.9998ZM8.19085 15.5869C5.04375 15.5869 2.42201 17.9964 2.1561 21.1316C2.10943 21.6819 2.5177 22.1659 3.06801 22.2125C3.61832 22.2592 4.10227 21.8509 4.14895 21.3006C4.32706 19.2006 6.08298 17.5869 8.19085 17.5869H15.8092C17.9163 17.5869 19.673 19.2007 19.8511 21.3006C19.8978 21.8509 20.3817 22.2592 20.932 22.2125C21.4824 22.1659 21.8906 21.6819 21.844 21.1316C21.578 17.9963 18.9553 15.5869 15.8092 15.5869H8.19085ZM11.5455 9.27058C11.1549 8.88006 10.5218 8.88006 10.1312 9.27058C9.74072 9.66111 9.74072 10.2943 10.1312 10.6848C11.221 11.7745 12.9878 11.7745 14.0775 10.6848C14.4681 10.2943 14.4681 9.66111 14.0775 9.27058C13.687 8.88006 13.0538 8.88006 12.6633 9.27058C12.3546 9.57927 11.8541 9.57927 11.5455 9.27058Z" fill="black"/>
</svg>
