<svg width="24" height="24" viewBox="0 0 24 24" fill="none" xmlns="http://www.w3.org/2000/svg">
<path fill-rule="evenodd" clip-rule="evenodd" d="M11.9997 1.78308C8.49605 1.78308 5.65518 4.62262 5.65518 8.12668C5.65518 11.6305 8.49583 14.4712 11.9997 14.4712C15.5035 14.4712 18.3442 11.6305 18.3442 8.12668V2.78308C18.3442 2.2308 17.8964 1.78308 17.3442 1.78308H11.9997ZM8.19067 15.5869C5.04357 15.5869 2.42184 17.9964 2.15592 21.1316C2.13227 21.4105 2.22659 21.6866 2.41597 21.8927C2.60534 22.0988 2.87244 22.2161 3.15235 22.2161H20.8474C21.1273 22.2161 21.3944 22.0988 21.5837 21.8927C21.7731 21.6866 21.8674 21.4105 21.8438 21.1316C21.5779 17.9963 18.9551 15.5869 15.809 15.5869H8.19067ZM11.5451 9.27055C11.1546 8.88003 10.5215 8.88003 10.1309 9.27055C9.74041 9.66108 9.74041 10.2942 10.1309 10.6848C11.2207 11.7745 12.9875 11.7745 14.0772 10.6848C14.4678 10.2942 14.4678 9.66108 14.0772 9.27055C13.6867 8.88003 13.0535 8.88003 12.663 9.27055C12.3543 9.57924 11.8538 9.57924 11.5451 9.27055Z" fill="black"/>
</svg>
