<svg width="24" height="24" viewBox="0 0 24 24" fill="none" xmlns="http://www.w3.org/2000/svg">
<circle cx="9.5" cy="7.5" r="3.5" fill="#FA6650" fill-opacity="0.2"/>
<path d="M17.6429 20H18.7857C19.7325 20 20.5 19.2325 20.5 18.2857V18.2857C20.5 16.7078 19.2208 15.4286 17.6429 15.4286M13.1429 7.42634C13.1429 9.31882 11.608 10.8527 9.71429 10.8527C7.82057 10.8527 6.28571 9.31882 6.28571 7.42634C6.28571 5.53386 7.82057 4 9.71429 4C11.608 4 13.1429 5.53386 13.1429 7.42634ZM12 14.279H7.42857C5.53502 14.279 4 15.8135 4 17.707V17.707C4 18.9676 5.02195 19.9896 6.28258 19.9896H13.146C14.4066 19.9896 15.4286 18.9676 15.4286 17.707V17.707C15.4286 15.8135 13.8935 14.279 12 14.279ZM17.0714 13.1429C15.8091 13.1429 14.7857 12.1195 14.7857 10.8571C14.7857 9.59478 15.8091 8.57143 17.0714 8.57143C18.3338 8.57143 19.3571 9.59478 19.3571 10.8571C19.3571 12.1195 18.3338 13.1429 17.0714 13.1429Z" stroke="black" stroke-width="1.5" stroke-linecap="round"/>
</svg>
