<svg width="24" height="24" viewBox="0 0 24 24" fill="none" xmlns="http://www.w3.org/2000/svg">
<path fill-rule="evenodd" clip-rule="evenodd" d="M12 1.99963C13.6569 1.99963 15 3.34278 15 4.99963V11.9996C15 13.6565 13.6569 14.9996 12 14.9996C10.3431 14.9996 9 13.6565 9 11.9996V4.99963C9 3.34278 10.3431 1.99963 12 1.99963ZM17.25 8.49963C16.8358 8.49963 16.5 8.83542 16.5 9.24963V11.9996C16.5 14.4849 14.4853 16.4996 12 16.4996C9.51472 16.4996 7.5 14.4849 7.5 11.9996V9.24963C7.5 8.83542 7.16421 8.49963 6.75 8.49963C6.33579 8.49963 6 8.83542 6 9.24963V11.9996C6.00148 15.0222 8.25111 17.5718 11.25 17.9496V19.4996H9.25C8.83579 19.4996 8.5 19.8354 8.5 20.2496C8.5 20.6638 8.83579 20.9996 9.25 20.9996H14.75C15.1642 20.9996 15.5 20.6638 15.5 20.2496C15.5 19.8354 15.1642 19.4996 14.75 19.4996H12.75V17.9496C15.7489 17.5718 17.9985 15.0222 18 11.9996V9.24963C18 8.83542 17.6642 8.49963 17.25 8.49963Z" fill="black"/>
</svg>
