<svg width="24" height="24" viewBox="0 0 24 24" fill="none" xmlns="http://www.w3.org/2000/svg">
<path fill-rule="evenodd" clip-rule="evenodd" d="M14.5 7.75V8.75H12.5C12.0858 8.75 11.75 9.08579 11.75 9.5C11.75 9.91421 12.0858 10.25 12.5 10.25H14.5V11C14.5 12.3807 13.3807 13.5 12 13.5C10.6193 13.5 9.5 12.3807 9.5 11V6C9.5 4.61929 10.6193 3.5 12 3.5C13.3807 3.5 14.5 4.61929 14.5 6V6.25H13.5C13.0858 6.25 12.75 6.58579 12.75 7C12.75 7.41421 13.0858 7.75 13.5 7.75H14.5ZM8 6C8 3.79086 9.79086 2 12 2C14.2091 2 16 3.79086 16 6V11C16 13.2091 14.2091 15 12 15C9.79086 15 8 13.2091 8 11V6ZM11.25 17.9603V20.25H9C8.58579 20.25 8.25 20.5858 8.25 21C8.25 21.4142 8.58579 21.75 9 21.75H15C15.4142 21.75 15.75 21.4142 15.75 21C15.75 20.5858 15.4142 20.25 15 20.25H12.75V17.9603C16.2633 17.5861 19 14.6126 19 11V8.75C19 8.33579 18.6642 8 18.25 8C17.8358 8 17.5 8.33579 17.5 8.75V11C17.5 14.0376 15.0376 16.5 12 16.5C8.96243 16.5 6.5 14.0376 6.5 11V8.75C6.5 8.33579 6.16421 8 5.75 8C5.33579 8 5 8.33579 5 8.75V11C5 14.6126 7.73668 17.5861 11.25 17.9603Z" fill="black"/>
</svg>
