<svg width="24" height="24" viewBox="0 0 24 24" fill="none" xmlns="http://www.w3.org/2000/svg">
<path fill-rule="evenodd" clip-rule="evenodd" d="M19.1422 14.3906C19.6851 14.3906 20.1253 13.9833 20.1253 13.4808C20.1253 12.9784 19.6851 12.571 19.1422 12.571C18.5992 12.571 18.159 12.9784 18.159 13.4808C18.159 13.9833 18.5992 14.3906 19.1422 14.3906ZM14.3422 14.3906C14.8851 14.3906 15.3253 13.9833 15.3253 13.4808C15.3253 12.9784 14.8851 12.571 14.3422 12.571C13.7992 12.571 13.359 12.9784 13.359 13.4808C13.359 13.9833 13.7992 14.3906 14.3422 14.3906ZM11.5952 9.11923C12.234 9.11923 12.7518 8.64005 12.7518 8.0489C12.7518 7.45779 12.234 6.97857 11.5952 6.97857C10.9564 6.97857 10.4386 7.45779 10.4386 8.0489C10.4386 8.64005 10.9564 9.11923 11.5952 9.11923ZM5.78313 9.11923C6.42191 9.11923 6.93976 8.64005 6.93976 8.0489C6.93976 7.45779 6.42191 6.97857 5.78313 6.97857C5.14436 6.97857 4.62651 7.45779 4.62651 8.0489C4.62651 8.64005 5.14436 9.11923 5.78313 9.11923ZM19.6296 20.576C19.5068 20.5102 19.3601 20.4952 19.2243 20.5332C18.4541 20.7486 17.6231 20.8661 16.7566 20.8661C12.7562 20.8661 9.51325 18.3623 9.51325 15.2736C9.51325 12.185 12.7562 9.68116 16.7566 9.68116C20.757 9.68116 24 12.185 24 15.2736C24 16.9797 23.0106 18.5072 21.4507 19.533C21.3255 19.6153 21.2687 19.7608 21.3076 19.8983L21.6486 21.1019C21.7507 21.4623 21.5492 21.6044 21.2008 21.4178L19.6296 20.576ZM5.77021 16.5157C6.68672 16.7683 7.6743 16.9059 8.70361 16.9059C8.86066 16.9059 9.01669 16.9027 9.17167 16.8964C8.97976 16.3717 8.87711 15.8185 8.87711 15.2469C8.87711 11.8774 12.4437 9.14599 16.8434 9.14599C16.9972 9.14599 17.15 9.14933 17.3017 9.15592C16.6489 5.95132 13.048 3.5 8.70361 3.5C3.89673 3.5 0 6.50102 0 10.2029C0 12.238 1.17756 14.0612 3.03652 15.2905C3.21155 15.4062 3.2917 15.6095 3.23601 15.8018L2.82691 17.2144C2.70344 17.6408 2.93942 17.8075 3.35133 17.585L5.21503 16.578C5.38291 16.4873 5.58387 16.4643 5.77021 16.5157Z" fill="#07C160"/>
</svg>
